<?xml version="1.0" standalone="no"?>
<!DOCTYPE svg PUBLIC "-//W3C//DTD SVG 20010904//EN"
 "http://www.w3.org/TR/2001/REC-SVG-20010904/DTD/svg10.dtd">
<svg version="1.0" xmlns="http://www.w3.org/2000/svg"
 width="2000.000000pt" height="2000.000000pt" viewBox="0 0 2000.000000 2000.000000"
 preserveAspectRatio="xMidYMid meet">

<g transform="translate(0.000000,2000.000000) scale(0.100000,-0.100000)"
fill="#000000" stroke="none">
<path d="M9089 17976 c-19 -7 -62 -28 -95 -48 -32 -20 -102 -60 -154 -90 -52
-30 -225 -130 -385 -223 -159 -92 -420 -243 -580 -335 -159 -92 -348 -201
-420 -242 -71 -41 -215 -124 -320 -185 -104 -60 -266 -154 -360 -208 -93 -54
-228 -132 -300 -173 -151 -88 -239 -138 -540 -312 -454 -262 -945 -546 -1105
-638 -91 -53 -232 -135 -315 -182 -555 -320 -759 -438 -895 -517 -161 -93
-289 -167 -1065 -615 -752 -434 -904 -523 -928 -546 -15 -14 -38 -48 -52 -76
l-25 -50 0 -2788 c0 -3049 -5 -2816 56 -2895 39 -52 91 -73 177 -73 l74 0 159
92 c87 50 213 122 279 160 129 74 178 122 221 213 35 74 31 108 -23 200 -76
131 -86 156 -91 210 -8 98 39 151 143 162 89 9 183 -31 320 -137 33 -25 82
-63 108 -83 45 -34 152 -76 164 -64 8 9 -47 96 -144 224 -133 177 -189 277
-222 395 l-16 57 -337 -194 c-193 -112 -348 -195 -362 -195 -15 0 -30 8 -36
19 -7 14 -10 726 -10 2233 0 2140 1 2214 19 2254 10 23 34 53 52 66 59 43
7023 4061 7048 4066 54 11 51 143 51 -2252 0 -2161 -1 -2222 -19 -2263 -12
-26 -34 -51 -58 -66 -21 -13 -1365 -790 -2988 -1727 -1622 -936 -2952 -1705
-2955 -1708 -3 -3 0 -6 6 -9 49 -17 153 -93 225 -163 96 -94 178 -212 243
-350 l42 -90 493 285 c272 157 495 285 497 285 2 0 4 -74 4 -165 0 -182 7
-212 67 -266 26 -24 832 -493 951 -553 97 -49 209 -69 367 -64 213 7 211 6
835 367 294 170 554 325 578 346 70 60 82 95 82 231 0 136 -15 181 -80 236
-21 18 -213 134 -426 257 -214 122 -405 235 -424 250 -19 15 -45 47 -57 71
-21 41 -23 58 -23 210 l0 165 1386 800 c1081 624 1394 809 1420 839 70 81 64
-166 62 2916 l-3 2785 -22 40 c-57 107 -178 153 -294 111z m-3374 -7671 c20
-19 25 -34 25 -77 0 -116 -96 -240 -186 -240 -89 0 -117 103 -59 217 57 112
162 159 220 100z"/>
<path d="M5625 10278 c-59 -32 -115 -122 -115 -185 0 -32 21 -63 43 -63 47 0
117 82 138 161 11 41 10 50 -4 73 -19 28 -31 31 -62 14z"/>
<path d="M5585 15217 c-1744 -1008 -3187 -1842 -3208 -1854 -70 -42 -77 -66
-77 -256 l0 -168 48 27 c105 61 106 61 148 206 26 90 47 142 64 160 34 37
1428 842 1460 842 24 1 28 -4 107 -128 10 -16 23 -30 28 -30 6 0 1055 603
2332 1340 l2322 1339 1 158 c0 162 -7 198 -38 196 -9 0 -1444 -825 -3187
-1832z m3055 1563 c0 -72 -84 -139 -120 -95 -27 32 15 126 64 145 35 13 56 -6
56 -50z m-235 -90 c22 -25 15 -70 -20 -115 -31 -41 -61 -49 -85 -25 -39 39 18
152 81 159 3 1 14 -8 24 -19z m-221 -172 c0 -38 -6 -54 -28 -77 -34 -36 -62
-44 -81 -24 -43 43 17 157 80 151 29 -3 30 -5 29 -50z"/>
<path d="M6080 14734 c-1493 -862 -2721 -1572 -2728 -1578 -9 -9 -12 -65 -10
-234 l3 -222 1880 1086 c1034 597 2254 1301 2711 1565 457 263 838 485 847
492 16 11 17 35 15 235 l-3 223 -2715 -1567z m600 161 c19 -23 7 -99 -23 -137
-22 -29 -1053 -630 -2820 -1645 -139 -81 -177 -82 -177 -6 0 41 19 79 57 114
41 39 2904 1689 2929 1689 12 0 27 -7 34 -15z"/>
<path d="M12817 15966 c-58 -16 -84 -38 -97 -85 -6 -23 -10 -709 -10 -1962 0
-2132 -5 -1975 65 -2056 l33 -39 -46 9 c-26 6 -68 7 -94 3 -50 -8 -64 -15
-1034 -575 l-510 -295 23 -135 c33 -204 34 -199 -38 -265 -69 -64 -158 -112
-274 -149 -132 -41 -217 -52 -405 -52 -183 1 -277 14 -399 56 -104 37 -94 43
-90 -53 l4 -85 -57 -32 c-87 -48 -138 -127 -138 -213 1 -78 56 -168 131 -210
28 -15 38 -27 34 -38 -17 -53 -36 -171 -46 -284 -12 -139 -2 -508 26 -881 8
-104 15 -219 15 -255 2 -79 -15 -288 -31 -390 -35 -227 68 -403 204 -347 41
18 76 85 84 162 5 46 -9 202 -39 420 -6 44 -10 105 -9 135 1 30 35 249 76 485
41 237 85 497 99 579 14 82 27 150 29 152 2 2 69 -33 148 -78 l145 -83 57
-400 c55 -385 69 -558 48 -581 -13 -13 -41 -125 -41 -164 0 -24 12 -44 54 -88
30 -31 70 -84 89 -118 48 -81 89 -120 167 -158 57 -27 75 -31 150 -31 88 0
133 14 154 47 16 27 -17 84 -86 147 -140 128 -165 158 -209 246 -40 81 -44 96
-48 178 -2 50 9 224 25 393 l28 303 56 -32 c31 -18 473 -273 981 -566 l926
-535 -23 -71 c-33 -105 -108 -554 -96 -580 10 -21 97 -74 106 -64 3 2 10 113
15 246 11 256 25 350 67 438 49 106 139 178 239 192 l45 6 0 48 0 49 -75 0
c-102 0 -148 26 -188 105 -18 38 -43 150 -51 235 -11 106 19 380 43 394 4 3
33 -5 66 -17 54 -20 80 -22 258 -22 171 0 200 -2 207 -16 5 -9 18 -67 30 -130
11 -63 25 -129 31 -146 11 -34 32 -43 46 -19 4 8 23 30 41 50 27 30 39 36 72
36 51 0 80 -35 80 -97 0 -85 -59 -153 -138 -161 -31 -2 -52 0 -56 7 -20 32
-26 -2 -26 -158 l0 -169 75 -18 c41 -10 79 -20 85 -24 7 -4 2 -22 -14 -51 -47
-85 -54 -195 -21 -345 13 -54 236 -600 253 -616 12 -11 125 12 180 37 65 30
123 74 142 109 7 14 16 26 19 26 4 0 15 -26 26 -57 18 -52 25 -60 85 -96 36
-22 99 -58 140 -79 72 -38 77 -40 155 -36 l80 4 1365 788 c751 433 1381 800
1400 815 19 16 48 46 64 69 54 76 45 195 -21 273 l-25 29 53 -6 c68 -8 130 9
172 46 l32 28 3 1954 c2 2145 7 1997 -58 2078 -19 24 -69 61 -133 98 -56 32
-1137 656 -2402 1387 -1265 730 -2313 1334 -2330 1341 -49 20 -117 24 -168 10z
m1365 -1079 c689 -398 1665 -961 2168 -1252 503 -290 978 -564 1055 -608 166
-95 172 -100 196 -152 18 -38 19 -110 19 -1693 0 -1121 -3 -1660 -10 -1673
-14 -25 -46 -24 -95 4 -22 13 -393 227 -825 477 -1178 680 -2450 1414 -3145
1815 -341 196 -626 362 -633 368 -8 6 -22 28 -33 48 -19 37 -19 79 -19 1702 0
1280 3 1666 12 1675 7 7 22 12 34 12 12 0 586 -325 1276 -723z"/>
<path d="M13047 15323 c-4 -3 -7 -88 -7 -187 l0 -181 49 -27 c27 -16 54 -28
59 -28 6 0 24 45 42 100 23 76 35 100 48 100 9 -1 269 -146 577 -324 453 -262
564 -330 579 -356 11 -18 36 -91 55 -163 29 -104 41 -134 61 -148 27 -19 2920
-1689 2926 -1689 2 0 4 80 4 178 0 122 -4 185 -13 202 -13 26 -39 41 -1232
730 -308 178 -821 474 -1140 658 -319 184 -724 418 -900 519 -176 102 -381
220 -455 263 -74 43 -245 142 -379 219 -134 78 -249 141 -256 141 -6 0 -15 -3
-18 -7z m3893 -2355 c24 -39 27 -110 5 -128 -12 -10 -20 -9 -40 4 -57 37 -63
156 -9 156 17 0 31 -10 44 -32z m177 -107 c14 -20 23 -49 23 -71 0 -74 -58
-78 -91 -7 -22 49 -22 57 -9 92 14 36 48 30 77 -14z m162 -80 c11 -11 25 -38
32 -60 23 -77 -25 -122 -70 -65 -26 33 -37 89 -22 120 13 29 34 31 60 5z"/>
<path d="M13300 13421 l-70 -98 0 -100 c0 -139 0 -139 240 -279 107 -62 203
-113 212 -113 26 -1 38 31 38 105 0 57 -7 85 -47 183 -60 150 -64 155 -105
113 l-32 -32 16 -62 c10 -34 16 -64 14 -66 -2 -1 -15 28 -29 65 -75 203 -150
383 -157 383 -5 0 -41 -44 -80 -99z"/>
<path d="M13300 12600 l-72 -100 4 -110 c3 -101 5 -111 28 -134 31 -30 403
-246 424 -246 25 0 36 34 36 106 0 57 -7 85 -47 183 -60 150 -64 155 -105 113
l-32 -32 16 -62 c10 -34 16 -64 14 -66 -2 -1 -15 28 -29 65 -75 203 -150 383
-157 383 -5 0 -41 -45 -80 -100z"/>
<path d="M10190 14206 c-236 -66 -394 -312 -363 -564 19 -152 111 -290 235
-351 56 -28 71 -40 84 -71 17 -37 64 -90 80 -90 11 0 14 -25 14 -130 l0 -129
59 -69 c66 -77 136 -128 188 -138 83 -16 174 17 181 64 4 27 -37 103 -83 157
-32 36 -35 45 -35 102 l0 61 94 -1 c91 -2 95 -1 125 27 37 35 68 105 77 176 4
32 18 70 34 94 43 65 62 125 67 213 13 195 -69 368 -218 464 -46 29 -58 32
-122 32 -214 -2 -383 -135 -459 -363 l-18 -55 6 60 c8 80 38 168 76 222 88
128 291 204 423 158 l40 -14 -46 42 c-51 47 -134 91 -200 106 -59 14 -184 12
-239 -3z"/>
<path d="M4629 13269 c-211 -122 -399 -235 -417 -252 -61 -58 -67 -157 -10
-157 29 0 795 441 825 475 12 14 28 43 34 65 10 33 9 43 -5 65 -9 14 -22 25
-29 25 -7 0 -186 -100 -398 -221z"/>
<path d="M10731 12863 c135 -139 259 -362 259 -463 0 -52 -22 -117 -58 -173
-17 -28 -33 -69 -37 -97 -6 -47 -3 -55 89 -237 105 -207 136 -247 191 -247 42
0 78 25 127 89 147 194 409 762 395 858 -2 18 3 49 14 74 54 127 37 143 -132
118 -160 -23 -173 -31 -234 -148 -35 -68 -55 -97 -68 -97 -24 0 -50 -63 -42
-100 4 -19 -2 -53 -19 -100 -14 -39 -26 -82 -26 -95 0 -23 3 -24 79 -27 l79
-3 -60 -82 c-33 -46 -63 -83 -67 -83 -10 0 -81 180 -81 206 0 40 -147 405
-202 502 -61 108 -110 145 -208 157 l-55 7 56 -59z"/>
<path d="M10075 12856 c-94 -30 -149 -78 -189 -167 -30 -64 -138 -439 -132
-455 2 -5 -13 -91 -35 -190 -21 -98 -46 -226 -55 -284 l-17 -106 32 -149 c70
-327 162 -621 244 -780 54 -103 135 -189 196 -205 48 -13 126 -6 178 15 58 24
52 67 -23 156 -49 59 -108 148 -102 154 3 3 25 -4 49 -15 54 -24 71 -25 98 -2
21 17 20 18 -68 94 -48 42 -107 88 -130 102 -25 16 -47 40 -56 64 -26 61 -65
206 -100 373 l-32 157 60 246 c42 173 64 246 74 246 7 0 18 10 23 23 9 21 103
346 121 417 20 83 1 218 -42 287 -22 36 -34 38 -94 19z"/>
<path d="M13078 8909 c-17 -10 -26 -59 -10 -59 4 1 21 12 37 25 25 21 28 27
15 35 -18 12 -21 12 -42 -1z"/>
<path d="M13407 8893 c-13 -12 -7 -20 28 -38 40 -22 53 -15 37 20 -11 24 -49
35 -65 18z"/>
<path d="M13096 8785 c-9 -9 -16 -20 -16 -25 0 -14 31 -41 43 -37 21 7 32 36
21 54 -15 24 -29 26 -48 8z"/>
<path d="M13376 8777 c-21 -16 -15 -51 11 -61 33 -13 57 36 31 62 -15 15 -20
15 -42 -1z"/>
<path d="M7290 8272 c-30 -16 -964 -554 -2075 -1195 -1556 -898 -2025 -1173
-2042 -1198 -21 -29 -23 -44 -23 -148 0 -95 3 -121 19 -146 14 -24 309 -199
1387 -820 1285 -741 1372 -790 1414 -789 38 1 75 19 245 117 110 64 1041 602
2070 1195 1626 939 1871 1084 1887 1113 26 49 26 241 0 284 -15 24 -316 201
-1386 819 -929 535 -1379 790 -1404 793 -28 4 -50 -2 -92 -25z m217 -523 c230
-133 486 -280 568 -328 83 -48 468 -271 857 -495 388 -224 709 -415 713 -424
3 -9 -2 -23 -12 -32 -10 -10 -155 -96 -323 -193 -355 -204 -495 -285 -715
-412 -88 -51 -629 -363 -1202 -694 -924 -533 -1047 -601 -1084 -601 -36 0
-107 38 -568 304 -289 166 -794 457 -1121 646 -941 543 -895 515 -895 540 0
19 73 65 475 297 1436 829 1793 1035 2285 1320 392 226 549 312 572 312 24 1
135 -59 450 -240z m-2615 -2490 c75 -38 89 -100 35 -154 -95 -95 -337 -49
-337 65 0 97 181 150 302 89z"/>
<path d="M4704 5230 c-38 -12 -67 -43 -62 -66 1 -9 16 -26 31 -38 41 -30 163
-30 204 0 61 46 18 103 -83 110 -32 2 -73 -1 -90 -6z"/>
<path d="M12876 6791 c-11 -4 -39 -32 -63 -62 -40 -50 -42 -55 -25 -67 9 -7
157 -93 327 -192 l310 -179 106 18 c73 12 121 26 151 44 50 29 197 158 296
259 59 60 62 66 52 92 -10 26 -12 27 -33 14 -12 -8 -33 -22 -47 -31 -14 -8
-59 -26 -100 -39 -68 -21 -92 -23 -275 -22 -184 0 -208 3 -300 27 -98 26 -239
87 -295 127 -29 20 -69 25 -104 11z"/>
<path d="M11908 6645 c-24 -16 -42 -40 -53 -70 -61 -158 100 -336 493 -545 67
-36 122 -68 122 -72 0 -5 -35 -8 -77 -8 -125 -1 -183 -38 -232 -151 -31 -70
-36 -113 -15 -133 20 -21 49 -17 165 19 87 27 229 45 361 45 l93 0 2 53 2 52
-365 209 c-200 115 -369 215 -375 222 -6 7 -24 97 -41 201 -17 103 -34 191
-37 195 -4 4 -23 -3 -43 -17z"/>
<path d="M14050 6309 c-52 -39 -139 -102 -194 -140 l-98 -68 47 -28 c26 -15
60 -36 76 -45 55 -33 32 -78 -69 -136 -37 -22 -178 -103 -313 -180 -135 -78
-252 -142 -260 -142 -8 0 -66 29 -128 65 -99 57 -112 62 -109 43 2 -15 23 -34
61 -56 39 -24 54 -38 48 -46 -6 -7 36 -59 126 -156 74 -80 155 -172 180 -205
61 -79 81 -95 125 -95 32 0 41 5 62 37 14 20 31 58 37 85 7 26 17 48 22 48 5
0 50 -16 100 -36 170 -68 379 -93 494 -59 56 17 107 65 120 113 5 15 8 79 7
142 0 118 -26 269 -79 476 -44 167 -141 454 -153 454 -4 -1 -50 -33 -102 -71z"/>
<path d="M10825 5926 c-16 -8 -813 -466 -1770 -1019 -1362 -787 -1745 -1012
-1762 -1037 -19 -28 -23 -46 -23 -115 0 -69 4 -87 22 -115 18 -25 233 -153
953 -568 894 -516 932 -537 980 -537 48 1 124 44 1795 1008 1113 643 1757
1021 1778 1042 31 34 32 37 32 123 0 76 -3 94 -22 121 -31 45 -1858 1101
-1915 1107 -21 2 -51 -2 -68 -10z m632 -755 c808 -467 848 -491 848 -518 0
-27 -60 -63 -1370 -820 -1258 -727 -1374 -792 -1415 -792 -41 0 -115 40 -890
489 -787 455 -845 490 -845 515 0 25 91 79 1385 826 1144 661 1390 799 1412
795 15 -3 409 -226 875 -495z m-2943 -1645 c67 -28 95 -97 58 -142 -73 -91
-274 -78 -321 20 -20 42 6 91 62 116 50 23 152 26 201 6z"/>
<path d="M10510 5520 c-13 -8 -12 -10 3 -10 9 0 17 5 17 10 0 12 -1 12 -20 0z"/>
<path d="M10554 5505 c-10 -8 -14 -14 -9 -15 15 0 40 18 34 24 -3 3 -14 -1
-25 -9z"/>
<path d="M10589 5491 c-13 -11 -19 -20 -13 -21 15 0 50 27 43 34 -3 4 -17 -2
-30 -13z"/>
<path d="M10631 5479 c-18 -11 -31 -23 -28 -26 3 -3 25 7 49 21 24 14 36 26
28 26 -8 0 -30 -9 -49 -21z"/>
<path d="M10720 5434 c-9 -10 -16 -12 -24 -4 -5 5 -17 10 -25 10 -13 -1 -13
-3 2 -11 9 -6 15 -14 12 -19 -3 -5 3 -8 12 -7 22 2 56 34 44 42 -5 2 -14 -2
-21 -11z"/>
<path d="M10745 5406 c-16 -12 -17 -16 -6 -30 7 -9 19 -16 25 -16 6 0 3 5 -7
11 -20 12 -14 27 17 39 14 6 16 9 5 9 -8 1 -24 -5 -34 -13z"/>
<path d="M10800 5406 c0 -2 7 -7 16 -10 8 -3 12 -2 9 4 -6 10 -25 14 -25 6z"/>
<path d="M10783 5374 c0 -16 13 -19 21 -5 3 5 0 11 -7 14 -8 3 -14 -1 -14 -9z"/>
<path d="M11298 5091 c-20 -14 -20 -14 6 -28 18 -10 31 -11 45 -4 19 11 35 40
26 49 -3 3 -5 0 -5 -6 0 -7 -5 -12 -11 -12 -5 0 -8 4 -4 9 8 15 -34 9 -57 -8z"/>
<path d="M10444 5089 c-92 -27 -60 -98 59 -133 l42 -12 -48 -13 c-58 -17 -117
-3 -152 35 -25 26 -65 32 -65 10 0 -25 63 -65 126 -81 63 -16 137 -10 187 16
38 20 77 62 77 84 0 31 -50 74 -105 91 -54 16 -76 16 -121 3z m143 -53 c27
-24 28 -24 9 -45 -24 -26 -61 -27 -103 -1 -37 22 -41 37 -15 56 28 21 78 17
109 -10z"/>
<path d="M10697 4903 c-15 -14 -6 -31 22 -43 53 -21 99 14 52 40 -22 11 -64
13 -74 3z"/>
<path d="M10892 4839 c-56 -10 -120 -46 -146 -82 -19 -26 -19 -30 -6 -54 41
-72 174 -90 276 -37 101 51 110 115 21 153 -56 25 -93 30 -145 20z m113 -41
c50 -22 26 -64 -60 -104 -76 -36 -145 -28 -145 16 0 23 52 65 106 84 49 18 67
19 99 4z"/>
<path d="M10557 4823 c-12 -12 -7 -22 18 -39 28 -19 75 -12 75 11 0 26 -73 48
-93 28z"/>
<path d="M12007 4722 c8 -5 2 -13 -19 -25 -29 -17 -30 -17 -24 0 6 15 5 16 -6
5 -11 -11 -9 -16 7 -28 31 -24 98 -57 90 -45 -4 8 2 8 20 1 37 -14 52 -12 59
7 8 19 -18 45 -38 37 -6 -2 -20 3 -31 12 -11 8 -14 13 -7 9 6 -3 12 -4 12 -1
0 6 -56 36 -67 36 -4 0 -3 -4 4 -8z m13 -68 c0 -2 -9 0 -20 6 -11 6 -20 13
-20 16 0 2 9 0 20 -6 11 -6 20 -13 20 -16z m99 -10 c-6 -8 -16 -14 -21 -14 -7
0 -6 5 1 13 6 8 8 17 4 21 -4 4 0 4 10 0 14 -5 15 -9 6 -20z"/>
<path d="M11163 4680 c-50 -10 -129 -55 -143 -80 -27 -51 14 -99 100 -120 73
-18 166 8 221 60 21 20 39 42 39 48 0 6 -11 24 -25 41 -38 44 -118 65 -192 51z
m128 -49 c30 -25 20 -45 -44 -85 -61 -38 -124 -45 -157 -18 l-25 20 25 27 c30
33 115 75 151 75 15 0 37 -9 50 -19z"/>
<path d="M8333 3474 c-17 -9 -34 -22 -37 -29 -15 -40 80 -82 155 -70 43 7 89
39 89 61 0 46 -139 71 -207 38z"/>
</g>
</svg>
