<?xml version="1.0" standalone="no"?>
<!DOCTYPE svg PUBLIC "-//W3C//DTD SVG 20010904//EN"
 "http://www.w3.org/TR/2001/REC-SVG-20010904/DTD/svg10.dtd">
<svg version="1.0" xmlns="http://www.w3.org/2000/svg"
 width="2000.000000pt" height="2000.000000pt" viewBox="0 0 2000.000000 2000.000000"
 preserveAspectRatio="xMidYMid meet">

<g transform="translate(0.000000,2000.000000) scale(0.100000,-0.100000)"
fill="#000000" stroke="none">
<path d="M14062 18627 c-117 -117 -212 -217 -212 -223 0 -16 424 -434 440
-434 8 0 111 96 229 214 185 185 212 216 203 232 -18 33 -417 424 -433 424 -8
0 -110 -96 -227 -213z m426 -30 l192 -193 -197 -197 -198 -197 -195 195 -195
195 195 195 c107 107 197 195 200 195 3 0 92 -87 198 -193z"/>
<path d="M4362 18197 c-136 -136 -212 -219 -212 -232 0 -24 407 -435 431 -435
16 0 439 419 439 435 0 10 -430 445 -440 445 -3 0 -101 -96 -218 -213z m418
-32 l195 -195 -198 -198 -197 -197 -197 197 -198 198 195 195 c107 107 197
195 200 195 3 0 93 -88 200 -195z"/>
<path d="M13262 17837 c-81 -81 -132 -140 -132 -152 0 -13 51 -72 135 -155
129 -128 135 -133 158 -121 24 13 258 254 266 274 4 11 -269 287 -284 287 -6
0 -70 -60 -143 -133z m265 -29 c62 -62 113 -117 113 -123 0 -6 -52 -62 -115
-125 l-115 -115 -120 120 -120 120 117 117 c65 65 120 118 123 118 2 0 55 -51
117 -112z"/>
<path d="M4140 17180 c-2196 -4 -2589 -7 -2610 -19 -59 -33 -92 -67 -120 -125
l-30 -61 2 -5165 c3 -4909 4 -5165 20 -5168 17 -3 18 233 20 4820 l3 4823
2745 0 2745 0 2 -3240 3 -3240 -108 -185 c-71 -123 -121 -199 -149 -223 -44
-40 -108 -155 -138 -245 -13 -41 -14 -59 -6 -83 8 -25 4 -67 -19 -205 -36
-208 -48 -342 -54 -604 -4 -142 -12 -238 -30 -353 -15 -88 -26 -199 -26 -251
l0 -94 39 -35 c21 -19 70 -50 107 -68 38 -17 89 -47 113 -66 26 -19 56 -33 72
-33 32 0 67 32 75 70 3 14 26 92 51 174 45 145 46 150 34 208 -6 32 -28 96
-47 141 -30 69 -34 90 -29 129 7 62 58 232 89 300 l24 53 1 -1400 1 -1400 -49
-231 c-46 -217 -166 -694 -421 -1679 l-109 -420 14 -100 c8 -55 18 -118 21
-141 5 -34 0 -53 -40 -132 l-46 -92 -1920 0 c-1056 0 -1920 3 -1920 8 0 4 7
16 15 26 18 24 19 75 4 110 -12 26 -63 56 -96 56 -40 0 -123 -32 -174 -65 -28
-20 -54 -34 -56 -31 -5 4 162 294 181 313 9 10 25 8 76 -9 174 -56 333 3 333
123 0 94 -105 128 -223 73 -30 -14 -70 -37 -89 -51 -18 -14 -32 -22 -30 -17 3
5 32 63 65 129 33 67 66 135 72 153 6 18 16 32 22 32 5 0 43 -9 82 -20 133
-37 233 -20 291 49 52 63 26 158 -48 177 -69 17 -216 -49 -287 -129 l-37 -42
19 65 c23 77 50 238 50 295 l0 40 98 -9 c120 -10 193 3 259 47 85 57 113 129
78 197 -22 42 -53 60 -105 60 -98 0 -221 -94 -284 -216 l-35 -69 -3 155 -2
155 -6 -145 c-3 -100 -8 -136 -13 -115 -12 46 -55 134 -84 171 -57 75 -136 95
-192 48 -61 -51 -51 -131 26 -207 47 -48 100 -73 200 -97 l52 -12 -5 -46 c-9
-68 -50 -252 -65 -287 -12 -29 -13 -28 -19 40 -10 108 -65 214 -134 256 -38
23 -69 24 -106 2 -73 -43 -67 -154 14 -242 23 -26 109 -71 171 -91 22 -7 43
-16 48 -19 8 -8 -82 -197 -146 -305 l-42 -71 -6 70 c-11 117 -59 216 -128 262
-92 62 -192 -21 -161 -132 20 -70 73 -123 166 -167 45 -21 87 -38 92 -38 29 0
14 -32 -90 -200 l-113 -182 -7 64 c-15 151 -120 282 -208 263 -39 -8 -78 -50
-86 -90 -9 -48 29 -127 84 -175 26 -24 75 -51 118 -67 74 -28 83 -38 64 -74
-10 -18 -24 -19 -278 -18 l-267 0 63 23 c118 44 188 112 199 194 10 75 -58
144 -125 127 -62 -15 -129 -93 -162 -187 -10 -28 -20 -46 -23 -41 -4 7 -21
328 -19 368 0 5 39 23 87 40 99 34 163 82 196 148 59 114 -49 224 -151 155
-47 -33 -87 -86 -115 -153 l-23 -59 -7 35 c-3 19 -5 101 -3 183 l3 148 61 22
c90 33 124 56 163 110 28 39 35 58 35 97 1 42 -3 53 -31 80 -59 59 -147 34
-205 -58 l-23 -38 -3 152 c-3 152 -2 152 27 205 52 94 52 153 0 212 l-29 34
-2 843 c-3 742 -5 844 -18 844 -13 0 -16 -102 -20 -840 l-5 -840 -30 -4 c-45
-5 -78 -34 -112 -98 -40 -75 -51 -120 -54 -220 l-3 -82 -35 31 c-53 46 -137
82 -206 86 -55 4 -64 1 -93 -23 -28 -23 -32 -33 -32 -75 0 -123 147 -175 326
-115 41 14 77 25 79 25 15 0 135 -303 135 -341 0 -7 -16 10 -35 37 -103 145
-299 202 -351 103 -43 -84 19 -172 140 -199 38 -8 68 -7 136 4 48 9 94 18 102
21 22 9 38 -104 38 -261 l0 -128 -29 40 c-54 73 -165 136 -244 137 -44 1 -53
-3 -79 -32 -27 -30 -30 -39 -26 -83 6 -58 26 -83 93 -114 58 -28 138 -31 227
-10 l58 13 0 -192 0 -192 -41 39 c-76 72 -190 113 -251 89 -37 -14 -61 -54
-61 -100 0 -107 128 -165 300 -138 l52 9 3 -34 c2 -25 8 -34 26 -36 12 -2 22
-5 22 -7 0 -17 43 -220 55 -259 17 -57 13 -71 -8 -29 -22 41 -110 121 -160
143 -98 45 -177 3 -177 -93 0 -50 41 -101 107 -134 54 -26 65 -28 168 -26
l110 2 27 -87 c14 -48 29 -95 33 -104 7 -17 -28 -18 -647 -18 -360 0 -657 -3
-661 -6 -3 -3 -3 -12 0 -20 4 -12 437 -14 2978 -14 l2973 0 -15 -42 c-20 -57
-19 -193 2 -264 22 -76 59 -132 91 -140 44 -11 206 4 341 31 135 28 198 50
223 80 24 28 16 93 -20 174 -33 71 -33 75 -19 115 l14 41 653 3 c585 2 652 1
652 -13 0 -36 32 -76 82 -101 160 -81 414 -154 536 -154 64 0 87 5 137 29 70
32 115 80 115 120 0 15 -11 49 -24 74 l-23 47 2252 0 2253 0 16 -25 c9 -13 34
-35 56 -47 22 -13 40 -26 40 -29 0 -3 -48 -16 -106 -29 -120 -26 -167 -52
-172 -93 -11 -92 225 -168 608 -196 80 -6 170 -13 200 -16 30 -2 186 -7 347
-11 l291 -7 42 41 c22 23 45 42 50 42 15 0 57 81 79 152 11 37 23 101 27 143
l7 75 2376 2 c2253 3 2376 4 2379 21 3 16 -115 17 -2381 17 l-2385 0 -6 53
c-16 147 -17 203 -2 352 9 88 19 170 21 183 l5 22 2004 0 c1818 0 2004 1 2010
16 3 9 6 1279 6 2824 0 2336 -2 2809 -13 2819 -8 6 -17 8 -20 4 -4 -3 -7
-1270 -7 -2815 l0 -2808 -1990 0 -1991 0 5 32 c3 18 19 137 36 263 17 127 47
329 68 450 35 208 37 232 36 430 -1 293 -18 381 -147 770 l-43 130 17 270 c10
149 18 284 18 300 1 21 8 33 24 40 24 11 22 -7 72 655 9 124 26 304 37 400 15
129 21 244 23 440 1 263 2 266 35 405 42 176 43 254 5 510 -40 277 -39 284 84
657 190 580 261 901 261 1178 l0 85 48 35 c62 46 102 123 102 197 0 51 2 55
32 71 58 30 96 77 109 137 11 48 10 66 -6 136 -18 79 -18 84 -1 148 37 133 39
159 17 249 l-20 84 29 46 c62 102 73 187 45 345 -19 108 -47 172 -117 263 -40
52 -59 88 -73 139 -36 135 -140 203 -327 213 -88 4 -97 7 -102 26 -12 46 -126
204 -193 267 -121 114 -218 145 -413 136 -172 -9 -311 -53 -418 -134 -45 -34
-66 -43 -128 -52 -109 -16 -162 -49 -191 -119 -19 -47 -10 -97 34 -169 l34
-58 -20 -70 c-30 -99 -28 -182 5 -256 31 -68 28 -107 -11 -160 -14 -19 -30
-45 -37 -59 -7 -14 -13 -26 -14 -28 -1 -1 -14 2 -30 8 -16 6 -52 12 -79 14
-48 2 -59 9 -193 112 l-142 109 3 2400 2 2400 2750 0 2750 0 3 -3743 c2 -3558
3 -3743 20 -3740 16 3 17 207 17 4093 l0 4090 -21 45 c-26 57 -77 108 -130
132 -40 17 -142 18 -2638 18 -2212 0 -2601 -2 -2630 -14 -50 -21 -111 -80
-137 -134 l-22 -47 2 -2732 c2 -1540 -1 -2733 -6 -2733 -9 0 -284 214 -375
293 l-58 49 0 2566 c0 2481 -1 2568 -19 2607 -23 50 -84 109 -133 130 -34 14
-307 15 -2634 15 -2500 0 -2598 -1 -2638 -18 -22 -11 -60 -39 -83 -65 -80 -87
-73 220 -73 -3265 l0 -3115 -34 -61 c-19 -34 -75 -153 -125 -265 -79 -179
-209 -426 -255 -486 -14 -18 -15 340 -16 3533 0 2991 -2 3558 -14 3586 -30 72
-109 138 -181 153 -22 4 -1203 6 -2625 3z m8798 -3087 c1 -1206 -1 -2193 -4
-2193 -4 0 -27 18 -51 41 -64 59 -150 95 -272 114 -97 15 -111 20 -200 75 -53
32 -122 78 -155 101 -67 49 -89 45 -94 -13 -4 -46 27 -84 124 -149 41 -27 74
-53 74 -57 0 -4 -25 -36 -56 -72 -59 -70 -73 -102 -54 -125 21 -25 64 -17 114
20 45 35 46 35 46 13 0 -34 23 -62 69 -83 40 -18 46 -35 12 -35 -11 0 -38 9
-62 20 -59 26 -105 26 -119 -1 -28 -51 37 -111 159 -149 62 -20 307 -60 363
-60 23 0 46 -10 71 -31 l37 -30 0 -862 c0 -668 -3 -858 -12 -849 -7 7 -67 108
-134 224 l-122 213 -207 3 c-142 2 -212 -1 -221 -9 -17 -14 -21 -4 174 -346
l150 -262 -24 -16 c-37 -24 -39 -57 -11 -143 22 -68 24 -89 20 -182 -3 -64 -1
-122 6 -147 16 -58 87 -126 196 -187 81 -45 91 -55 136 -125 l49 -76 0 -2937
0 -2938 -1002 -2 c-884 -3 -1003 -5 -1003 -18 0 -13 121 -15 1018 -18 l1017
-2 0 2925 c0 1609 4 2925 8 2925 5 0 18 -17 30 -38 15 -28 19 -48 15 -78 -5
-36 0 -52 37 -115 62 -106 96 -147 149 -174 25 -14 74 -51 109 -83 l63 -59
-40 -274 c-111 -760 -150 -1131 -119 -1141 9 -3 7 -42 -5 -159 -28 -250 -36
-404 -40 -758 l-5 -333 32 -13 32 -13 12 -174 c36 -484 70 -736 123 -889 l39
-115 0 -717 0 -717 325 0 326 0 100 -206 c55 -114 99 -208 97 -209 -9 -9 -250
-56 -353 -70 -205 -27 -358 -69 -406 -111 -13 -12 -366 -14 -2285 -12 l-2268
3 -49 74 -49 73 21 84 c28 113 27 143 -9 192 -29 41 -29 41 -17 109 l12 68
870 5 c764 4 870 7 870 20 0 13 -104 15 -862 18 -818 2 -863 3 -863 20 0 17
38 225 160 887 34 182 101 548 150 815 49 267 130 708 180 980 50 272 110 603
135 735 l44 240 11 495 c19 925 17 897 37 927 15 23 18 52 19 188 1 120 11
228 38 435 90 691 132 941 302 1835 l46 240 205 470 c277 635 296 676 327 710
15 16 43 63 64 104 31 63 37 84 34 128 -4 85 -5 131 -2 248 3 123 -10 254 -76
790 -51 411 -51 393 -8 717 l28 217 46 3 45 3 0 550 0 550 -340 0 -340 0 0
-550 0 -550 23 -3 c17 -3 22 -10 22 -33 0 -35 20 -76 49 -103 14 -13 21 -31
21 -56 0 -20 7 -58 16 -84 13 -38 14 -55 5 -91 -18 -72 -14 -98 29 -164 l40
-62 0 -122 c0 -150 -12 -228 -94 -624 l-65 -312 -40 -51 c-49 -62 -55 -81 -49
-167 5 -73 14 -51 -132 -315 l-54 -98 -220 -182 c-278 -232 -249 -212 -291
-197 -23 9 -35 19 -35 32 0 10 33 51 74 90 99 97 101 107 93 420 -6 204 -4
243 9 268 19 38 29 116 20 163 -7 35 -60 102 -99 123 -17 9 -18 12 -3 46 40
96 26 179 -36 217 -51 31 -132 44 -202 32 -41 -6 -72 -6 -96 1 -19 6 -84 11
-145 11 -89 0 -120 -5 -166 -22 -125 -49 -244 -157 -305 -277 l-39 -75 -182 0
-183 0 0 -550 c0 -433 3 -550 13 -551 6 0 114 0 240 1 125 1 232 -2 237 -5 5
-3 -12 -33 -39 -65 -28 -33 -54 -67 -59 -75 -6 -11 -53 -26 -143 -45 -275 -58
-485 -116 -592 -164 -53 -23 -106 -67 -145 -121 l-21 -30 -1 2746 c0 1510 3
2749 7 2752 3 4 1242 6 2752 5 l2746 -3 3 -2192z m-2318 482 l0 -515 -92 1
c-51 0 -113 4 -138 7 l-45 7 0 98 0 99 -33 29 c-40 36 -85 39 -106 6 -9 -12
-18 -49 -21 -82 -4 -33 -11 -84 -16 -112 l-10 -53 -75 0 -74 0 0 515 0 515
305 0 305 0 0 -515z m-334 -299 c17 -13 19 -27 19 -127 1 -133 -6 -126 134
-128 l84 -1 -5 -47 c-3 -27 -18 -147 -34 -269 l-28 -220 52 -425 c71 -578 84
-711 76 -796 -3 -40 -8 -73 -11 -73 -3 0 -32 24 -64 54 -107 96 -230 147 -365
149 -47 1 -74 6 -74 13 0 12 55 284 110 544 24 114 32 181 37 315 l6 170 -42
64 c-41 64 -51 109 -31 141 8 13 11 12 25 -5 8 -11 20 -28 26 -37 10 -19 34
-24 43 -9 3 5 -14 36 -39 69 -85 113 -96 186 -45 299 38 84 47 118 59 226 6
48 13 92 16 97 9 14 28 12 51 -4z m-146 -266 c0 -5 -4 -10 -9 -10 -6 0 -13 5
-16 10 -3 6 1 10 9 10 9 0 16 -4 16 -10z m-30 -67 c0 -6 -5 -15 -11 -18 -15
-10 -38 26 -38 60 l0 30 24 -30 c14 -16 25 -35 25 -42z m170 -1613 c152 -44
310 -192 310 -288 0 -17 -19 -67 -42 -113 l-41 -83 -45 90 c-56 112 -97 162
-159 196 -83 45 -214 47 -315 3 -16 -6 -18 -1 -18 48 0 47 5 62 33 98 47 61
89 81 157 74 30 -4 84 -15 120 -25z m-1995 3 c-33 -86 -31 -353 4 -513 36
-161 109 -363 137 -374 10 -4 14 -22 14 -60 l0 -55 -230 -3 -230 -3 0 513 0
512 156 0 c145 0 156 -1 149 -17z m4099 -234 c96 -61 102 -63 214 -81 139 -22
192 -47 281 -130 74 -70 352 -292 639 -512 105 -81 192 -151 192 -155 0 -5
-19 -37 -43 -72 -23 -35 -56 -95 -72 -132 -16 -37 -32 -66 -36 -65 -4 2 -141
131 -304 286 -164 156 -314 294 -334 307 -28 18 -73 29 -211 48 -195 28 -292
56 -342 97 -50 43 -27 55 44 23 74 -33 117 -26 170 27 66 66 46 131 -64 206
-24 15 -75 54 -115 85 -40 32 -97 74 -128 94 -52 35 -75 60 -75 84 0 6 19 -2
43 -18 23 -16 86 -57 141 -92z m-2096 -5 c52 -31 93 -84 142 -188 l38 -79 -18
-41 c-150 -345 -372 -854 -425 -971 -72 -163 -72 -165 -146 -560 -148 -794
-169 -911 -169 -932 0 -12 -9 -28 -20 -36 -11 -8 -52 -69 -91 -137 -185 -322
-366 -567 -588 -792 -70 -72 -92 -101 -84 -109 17 -17 39 0 138 103 208 215
428 517 589 808 20 36 36 59 36 52 0 -7 -20 -162 -45 -345 -73 -540 -87 -680
-80 -787 5 -72 3 -99 -7 -113 -12 -16 -45 -18 -318 -27 -454 -15 -510 -16
-510 -9 0 3 15 12 33 21 52 25 224 158 334 259 126 116 273 274 273 294 0 33
-38 10 -100 -61 -133 -153 -398 -382 -533 -459 -28 -16 -46 -33 -43 -40 7 -19
-27 -25 -149 -25 -60 0 -193 -5 -294 -10 -134 -8 -204 -8 -260 0 -133 20 -381
70 -401 80 -51 27 -61 81 -35 198 16 76 37 279 95 932 52 589 54 613 95 821
37 186 41 219 25 219 -18 0 -37 -42 -155 -335 -65 -159 -124 -303 -132 -320
-9 -16 -81 -119 -161 -227 l-146 -198 -72 0 c-79 0 -246 38 -298 67 -39 23
-62 70 -76 156 -13 81 -36 31 223 476 197 339 224 390 345 662 109 242 199
387 270 434 53 35 277 106 486 154 200 47 207 48 744 130 l382 59 58 43 c31
23 60 48 64 54 3 6 112 98 242 205 l235 194 103 188 c98 179 105 189 143 203
58 21 83 24 155 19 45 -4 78 -13 108 -30z m2127 -124 c4 -6 31 -26 62 -46 91
-58 120 -102 94 -142 -7 -11 -15 -11 -47 3 -61 25 -74 42 -74 97 0 69 -18 71
-86 9 -30 -28 -62 -51 -70 -51 -19 0 -13 10 46 83 44 55 63 67 75 47z m-3091
-36 c10 -26 7 -286 -4 -325 -7 -25 -34 -59 -85 -108 -54 -51 -75 -78 -75 -96
0 -30 31 -23 -345 -75 -165 -23 -308 -44 -317 -46 -16 -5 -18 3 -18 64 l0 68
73 -19 c51 -14 108 -20 197 -21 116 -1 129 1 182 26 110 51 181 151 214 298
l17 75 18 -55 c21 -64 51 -95 80 -80 26 14 38 70 38 170 0 129 8 169 25 124z
m-64 -35 c-5 -17 -7 -66 -4 -109 4 -47 2 -86 -4 -97 -10 -16 -12 -14 -26 19
-21 50 -20 124 4 176 22 50 43 57 30 11z m4806 -276 c33 -17 70 -34 84 -38 33
-10 60 -34 60 -54 0 -9 11 -39 24 -68 43 -91 107 -79 134 24 17 61 37 83 77
83 67 0 113 -71 101 -154 -4 -22 -16 -70 -28 -106 l-21 -64 55 -51 c61 -54
165 -120 240 -151 46 -18 48 -21 69 -89 11 -38 37 -100 56 -138 35 -70 34 -86
-4 -87 -10 0 -329 -103 -358 -116 -6 -2 -41 48 -79 111 -38 63 -72 115 -77
115 -5 0 -33 -13 -62 -30 -100 -56 -132 -39 -209 114 l-40 80 32 27 c37 31 24
50 -16 24 -14 -9 -27 -15 -28 -13 -2 2 -13 29 -26 61 -17 43 -32 65 -59 81
-53 34 -68 54 -53 74 7 10 25 39 41 66 26 43 30 46 33 25 1 -13 10 -24 18 -24
11 0 16 14 18 55 2 61 -11 96 -27 70 -8 -11 -12 -9 -20 13 -14 37 -14 42 3 56
11 9 19 9 35 -1 30 -18 40 1 12 23 -14 12 -31 17 -40 13 -44 -18 -48 -16 -55
20 -4 20 -1 64 5 98 l12 62 17 -40 c14 -32 29 -46 76 -71z m-867 -387 l211
-199 0 -1109 c0 -1053 -1 -1110 -17 -1103 -10 4 -33 13 -52 20 -45 16 -269
193 -285 225 -8 14 -16 42 -20 62 -7 36 -6 37 26 42 18 3 61 7 96 10 65 5 82
11 82 26 0 5 -61 114 -135 243 l-135 234 0 878 c0 546 4 875 9 873 6 -1 105
-93 220 -202z m-3977 88 c14 -9 8 -19 -26 -42 -29 -20 -93 -32 -417 -83 -210
-32 -384 -57 -387 -55 -5 6 29 55 56 79 15 14 89 28 323 62 167 24 320 45 339
48 35 4 98 -1 112 -9z m4688 -143 c51 -26 81 -48 94 -70 l18 -31 -115 -120
c-122 -126 -171 -190 -183 -233 -3 -15 -9 -27 -13 -27 -3 0 -28 17 -56 38 -37
28 -52 47 -59 76 -20 77 27 206 124 344 49 70 53 73 83 67 18 -4 66 -24 107
-44z m257 -399 c40 -47 92 -53 167 -19 l56 26 24 -37 c32 -52 86 -148 86 -154
0 -3 -13 -11 -29 -18 -34 -13 -141 -122 -191 -192 -37 -53 -46 -57 -55 -29 -4
15 -21 23 -63 31 -101 20 -118 29 -224 120 -155 132 -178 157 -178 189 0 39
45 98 168 223 l106 107 52 -107 c29 -59 65 -122 81 -140z m-615 62 c5 -78 29
-112 119 -165 38 -23 76 -50 83 -61 8 -11 33 -33 57 -51 24 -17 78 -62 119
-100 91 -83 108 -93 194 -108 57 -10 69 -15 77 -36 8 -23 0 -35 -95 -134 -272
-283 -446 -539 -506 -739 -11 -36 -42 -204 -69 -374 -28 -170 -52 -310 -54
-313 -3 -2 -12 3 -21 12 -15 15 -16 116 -16 1114 0 604 2 1100 5 1103 3 3 28
-15 55 -41 46 -44 49 -49 52 -107z m1444 -181 c14 -32 13 -38 -7 -79 -31 -61
-46 -72 -114 -85 -56 -10 -311 -85 -497 -146 -49 -16 -88 -26 -88 -22 0 10
111 148 141 176 36 33 137 75 304 128 83 26 168 53 190 60 48 15 53 13 71 -32z
m-68 -222 c6 -17 30 -43 54 -60 91 -64 83 -45 59 -148 -34 -145 -31 -159 39
-234 64 -69 71 -90 40 -129 -29 -37 -24 -62 18 -102 52 -50 77 -61 122 -53 46
8 74 36 91 93 16 54 27 63 72 55 l37 -6 0 -82 c0 -284 -69 -594 -261 -1180
-124 -377 -124 -381 -80 -680 34 -234 33 -311 -4 -470 -53 -226 -75 -335 -95
-485 -29 -222 -51 -288 -130 -395 -21 -27 -56 -82 -78 -121 -23 -40 -49 -75
-58 -78 -26 -10 -84 24 -314 185 -229 161 -365 245 -443 274 -45 17 -54 17
-170 2 -104 -14 -436 -71 -544 -93 l-33 -6 0 53 c0 30 11 150 25 269 27 226
132 986 140 1008 3 8 35 -13 85 -55 193 -162 353 -220 440 -160 47 31 118 156
266 465 171 358 183 388 190 471 4 39 10 71 13 71 3 0 21 -42 40 -93 41 -108
189 -411 219 -447 18 -21 23 -23 31 -10 7 10 2 26 -16 55 -73 118 -263 555
-263 606 0 31 27 88 74 162 42 66 91 169 105 225 6 20 11 96 11 167 2 196 2
197 -16 193 -14 -3 -16 -26 -18 -163 -3 -152 -4 -164 -34 -239 -17 -43 -55
-120 -85 -170 -68 -112 -73 -129 -92 -294 l-15 -133 -91 -197 c-205 -441 -305
-624 -351 -643 -75 -31 -207 23 -365 149 -135 109 -265 229 -285 266 -27 49
-23 122 11 181 34 59 127 150 191 188 40 23 51 25 82 17 35 -10 36 -12 43 -73
20 -192 61 -377 86 -393 21 -12 27 19 13 59 -20 58 -53 247 -61 347 -7 107 24
306 73 463 43 136 74 289 74 359 0 79 24 147 81 232 60 91 127 160 181 187 37
19 39 22 25 36 -14 14 -20 13 -59 -10 -81 -47 -201 -198 -240 -301 -11 -28
-23 -98 -29 -160 -9 -107 -28 -195 -82 -376 -14 -47 -35 -141 -46 -210 -12
-68 -22 -125 -24 -126 -1 -1 -14 0 -29 3 -36 7 -36 2 7 275 72 454 76 473 146
610 82 164 226 353 418 550 l123 127 172 55 c244 78 448 137 498 145 3 1 11
-12 16 -28z m-7309 -1221 c-66 -732 -90 -973 -105 -1031 -18 -71 -18 -146 0
-178 12 -22 10 -35 -19 -115 -69 -191 -63 -251 -64 649 l-1 810 111 149 c61
81 112 146 113 145 2 -2 -14 -195 -35 -429z m5266 308 c3 -13 9 -45 15 -71 6
-27 21 -70 34 -95 23 -47 48 -136 61 -222 15 -93 29 -112 156 -210 65 -51 119
-94 119 -95 0 -1 -25 -15 -55 -29 -60 -30 -94 -66 -131 -138 -14 -27 -29 -46
-33 -44 -5 3 -47 66 -95 139 -83 129 -88 135 -154 171 -84 46 -158 102 -186
139 -19 26 -21 43 -22 165 0 115 -4 148 -23 205 -40 120 -18 125 98 24 109
-94 118 -100 136 -93 11 4 15 21 15 68 0 66 18 108 45 108 8 0 17 -10 20 -22z
m-6180 -299 c11 -45 25 -75 43 -92 50 -46 228 -97 343 -97 68 0 69 -2 34 -78
-31 -67 -51 -75 -185 -70 -93 3 -113 7 -172 35 -79 37 -143 80 -188 124 -26
27 -30 36 -24 63 8 41 67 168 96 208 l22 32 8 -29 c3 -17 14 -60 23 -96z m616
-1809 c-68 -189 -74 -214 -206 -855 -75 -363 -140 -669 -145 -680 -5 -11 -9
574 -9 1320 l-1 1340 34 100 c18 55 38 123 45 151 11 46 16 53 51 67 35 13 43
24 85 112 26 54 84 148 129 209 l81 111 3 -840 2 -840 -69 -195z m-702 1546
c104 -75 216 -116 323 -116 49 0 68 -4 68 -13 0 -27 -65 -219 -127 -376 -60
-151 -123 -363 -123 -414 0 -12 16 -58 35 -104 20 -45 41 -106 47 -135 10 -49
8 -62 -21 -156 -32 -104 -49 -123 -71 -83 -5 11 -10 50 -10 87 0 63 -2 69 -35
101 -20 19 -37 47 -41 68 -9 50 -35 46 -58 -9 -11 -26 -28 -48 -43 -55 -13 -6
-23 -17 -20 -24 7 -22 34 -19 65 8 l31 26 30 -33 c24 -26 30 -42 31 -75 0 -32
-4 -43 -15 -43 -8 0 -15 4 -15 10 0 5 -11 17 -24 25 -18 12 -30 13 -50 5 -21
-8 -31 -7 -42 5 -17 16 -42 19 -61 7 -15 -10 -33 -57 -33 -88 0 -37 -23 -24
-32 17 -8 40 4 166 32 334 11 70 20 168 20 235 0 159 17 418 35 547 20 143 46
283 52 283 3 0 26 -15 52 -34z m6760 -183 c20 -14 48 -37 63 -51 l27 -24 -58
-39 c-71 -47 -151 -131 -182 -190 -18 -34 -23 -60 -24 -116 l0 -72 -26 25
c-35 34 -119 177 -119 204 0 35 88 187 128 220 28 23 112 62 151 69 2 1 20
-11 40 -26z m-6832 -1189 c20 -56 14 -79 -19 -80 -34 -1 -68 30 -43 39 8 4 15
17 15 31 0 65 26 71 47 10z m97 2 c34 -72 9 -138 -45 -121 -15 5 -17 11 -10
24 6 11 6 33 1 57 -15 62 -14 65 31 73 4 0 14 -14 23 -33z m65 -66 c17 -54 6
-94 -28 -98 -19 -3 -22 0 -17 13 3 9 6 44 6 77 0 71 17 75 39 8z m57 -75 c-4
-18 -13 -38 -21 -45 -18 -15 -20 1 -4 17 7 7 13 27 14 45 3 41 5 46 12 30 3
-7 2 -28 -1 -47z m8304 -665 c-6 -85 -16 -186 -21 -225 -8 -60 -22 -217 -44
-510 -3 -38 -12 -155 -20 -260 -8 -104 -15 -200 -15 -212 0 -17 -14 -27 -82
-53 -239 -92 -526 -175 -713 -206 -201 -33 -506 5 -856 107 l-106 31 4 351 c3
284 8 401 29 607 18 183 29 258 39 266 32 24 618 119 673 109 67 -12 193 -90
527 -325 185 -130 206 -142 251 -143 42 -1 73 27 115 102 17 31 51 83 74 116
83 117 104 179 130 374 8 63 16 120 17 125 9 50 7 -131 -2 -254z m-6680 -1814
l0 -1645 -29 -118 c-16 -65 -34 -155 -41 -198 -6 -44 -16 -101 -22 -127 l-10
-48 -429 0 -429 0 0 800 0 800 104 262 c57 145 206 520 331 833 125 314 269
677 321 808 52 131 99 247 104 258 8 14 21 19 55 19 l45 0 0 -1644z m5010 392
c77 -19 603 -220 623 -238 5 -4 -6 -77 -23 -161 -62 -299 -52 -414 45 -557 29
-42 107 -185 173 -317 92 -182 126 -261 141 -325 159 -664 334 -1300 400
-1452 50 -116 78 -195 70 -203 -9 -8 -350 -108 -524 -152 -163 -42 -192 -46
-300 -47 -96 -1 -126 2 -152 16 -32 18 -78 71 -85 96 -2 9 31 25 100 47 165
55 423 195 456 247 8 14 -3 44 -61 155 -184 355 -699 1482 -830 1816 -74 190
-98 343 -142 890 l-17 218 21 -5 c11 -4 58 -16 105 -28z m1506 -125 c-3 -54
-9 -152 -12 -218 l-6 -120 67 -210 c36 -115 75 -246 85 -290 52 -221 52 -508
1 -797 -33 -192 -100 -681 -126 -923 -15 -143 -20 -371 -10 -425 4 -20 -1 -29
-23 -42 l-27 -16 -52 116 c-55 125 -86 226 -214 697 l-81 300 -13 325 c-15
350 -27 463 -80 746 -36 191 -171 847 -180 875 -5 14 19 17 212 22 199 6 421
32 440 51 21 20 25 -2 19 -91z m-625 -388 c136 -650 163 -832 173 -1145 6
-197 5 -197 -51 40 -17 69 -44 152 -60 185 -116 235 -238 466 -262 495 -57 72
-81 144 -81 247 0 135 67 458 115 553 22 44 30 51 52 48 26 -3 26 -3 114 -423z
m-6883 -2052 c1 -2 198 -3 437 -3 341 0 435 -3 435 -12 0 -7 -7 -35 -15 -63
-9 -27 -18 -110 -22 -185 -5 -118 -10 -145 -36 -210 -16 -41 -34 -90 -39 -108
l-9 -32 -639 0 c-352 0 -640 2 -640 5 0 2 9 28 21 57 24 62 28 188 9 311 -6
44 -9 89 -6 102 3 13 35 56 71 95 76 82 85 101 85 175 0 33 38 214 100 477 56
233 121 509 146 613 25 105 55 216 67 248 l22 57 5 -762 c3 -420 6 -764 8
-765z m-6023 1057 c-4 -9 -16 16 -31 60 -14 41 -48 122 -75 179 -27 57 -47
106 -45 108 2 3 37 24 78 48 l73 43 3 -211 c1 -117 0 -218 -3 -227z m12094
243 c25 -69 251 -573 408 -908 85 -181 157 -336 160 -342 4 -10 -59 -13 -296
-13 l-301 0 0 650 c0 358 4 650 8 650 4 0 14 -17 21 -37z m-11825 -1344 c-8
-22 -25 -62 -38 -87 -30 -59 -47 -142 -39 -184 4 -24 3 -30 -5 -23 -13 12 -82
274 -82 310 0 25 1 25 89 25 l89 0 -14 -41z m347 -21 c-16 -35 -41 -100 -55
-145 -15 -46 -29 -83 -31 -83 -2 0 -1 15 1 33 8 44 -21 162 -52 214 l-25 43
95 0 95 0 -28 -62z m4283 37 c3 -13 20 -41 38 -61 32 -36 46 -87 47 -169 1
-25 -20 -96 -58 -195 l-58 -155 -2182 -3 c-1590 -1 -2181 1 -2181 9 0 10 12
62 41 171 l9 37 120 -6 c115 -6 121 -5 174 21 69 34 101 76 101 134 0 59 -45
102 -105 102 -77 0 -208 -89 -250 -169 -11 -20 -19 -31 -20 -24 0 18 48 167
82 255 l30 77 2103 1 2103 1 6 -26z m276 -263 c-87 -60 -163 -164 -251 -345
-33 -67 -57 -111 -54 -97 9 35 144 402 154 419 5 8 40 20 78 26 93 17 102 17
73 -3z m290 -2 c18 -4 26 -14 28 -34 l4 -28 -34 25 c-18 13 -43 28 -55 32 -13
3 -23 11 -23 16 0 9 11 7 80 -11z m-5012 -34 c28 -16 52 -34 52 -40 0 -6 -14
-64 -32 -128 l-32 -118 -82 0 -83 0 -19 53 c-31 85 -54 158 -51 161 2 2 36 20
74 39 39 19 79 42 90 51 11 8 22 14 25 13 3 -1 29 -15 58 -31z m4928 1 c16 -8
48 -29 72 -46 36 -27 42 -36 42 -68 l0 -36 -37 38 c-48 50 -105 75 -172 75
-74 0 -124 -17 -173 -59 -42 -35 -42 -35 -21 -6 29 40 81 89 118 109 36 20
127 16 171 -7z m-5 -98 c41 -20 86 -70 95 -103 3 -13 -9 -54 -30 -105 -20 -45
-36 -94 -36 -107 0 -14 13 -51 29 -82 32 -63 46 -121 34 -138 -30 -43 -301
-103 -470 -104 -55 0 -64 3 -82 26 -44 56 -26 128 92 376 78 163 98 192 156
226 75 44 140 47 212 11z m7539 -36 c0 -21 -284 -181 -367 -207 -29 -9 -78 52
-69 86 11 43 23 49 123 64 55 8 143 25 194 38 107 27 119 29 119 19z m-5993
-52 c30 -29 69 -54 98 -65 96 -32 230 -16 364 45 l66 30 15 -21 c51 -73 130
-205 130 -217 0 -7 -12 -18 -27 -24 -45 -17 -203 -23 -277 -10 -81 14 -266 74
-389 126 -98 42 -93 30 -55 133 11 28 21 52 22 52 1 0 25 -22 53 -49z m-1947
-131 c-25 -65 -83 -173 -74 -140 9 34 81 190 88 190 3 0 -3 -23 -14 -50z
m2175 -135 c157 -45 278 -54 406 -28 31 6 33 5 20 -11 -8 -10 -33 -27 -55 -39
-35 -19 -56 -22 -141 -21 -84 1 -120 7 -223 37 -212 63 -334 122 -340 164 -3
20 5 18 120 -27 68 -27 164 -60 213 -75z m-2269 -72 c-8 -15 -15 -22 -16 -15
0 17 20 55 27 49 2 -3 -2 -18 -11 -34z"/>
<path d="M7945 15498 c-3 -7 -4 -254 -3 -548 l3 -535 343 -3 342 -2 0 550 0
550 -340 0 c-263 0 -342 -3 -345 -12z m645 -538 l0 -510 -305 0 -305 0 0 510
0 510 305 0 305 0 0 -510z"/>
<path d="M8935 15498 c-3 -7 -4 -254 -3 -548 l3 -535 343 0 c188 0 342 3 342
8 0 4 0 250 0 547 l0 540 -340 0 c-263 0 -342 -3 -345 -12z m653 -540 l2 -508
-310 0 -310 0 0 510 0 510 308 -2 307 -3 3 -507z"/>
<path d="M7945 13938 c-3 -7 -4 -254 -3 -548 l3 -535 343 -3 342 -2 0 550 0
550 -340 0 c-263 0 -342 -3 -345 -12z"/>
<path d="M8960 13400 l0 -550 345 0 345 0 -2 548 -3 547 -342 3 -343 2 0 -550z
m650 0 l0 -510 -305 0 -305 0 0 510 0 510 305 0 305 0 0 -510z"/>
<path d="M12069 5083 c-114 -115 -209 -215 -212 -224 -6 -19 408 -439 433
-439 17 0 440 419 440 435 0 16 -424 435 -440 435 -8 0 -108 -93 -221 -207z
m419 -420 l-198 -198 -195 195 -195 195 197 197 198 198 195 -195 195 -195
-197 -197z"/>
<path d="M11372 4387 c-116 -117 -212 -219 -212 -227 0 -17 419 -440 435 -440
6 0 109 99 230 220 l220 220 -220 220 c-121 121 -224 220 -230 220 -6 0 -106
-96 -223 -213z m426 -30 l192 -192 -198 -198 -197 -197 -195 195 -195 195 195
195 c107 107 197 195 200 195 3 0 92 -87 198 -193z"/>
<path d="M9847 10648 c-52 -86 -111 -175 -165 -252 -43 -60 -60 -92 -54 -98
19 -19 37 -1 119 118 97 142 143 220 143 239 0 23 -28 18 -43 -7z"/>
<path d="M9501 10163 c-54 -62 -62 -83 -32 -83 20 0 114 106 108 123 -8 25
-28 14 -76 -40z"/>
<path d="M8790 8597 c-168 -165 -332 -307 -432 -376 -50 -33 -58 -48 -34 -57
34 -13 252 164 498 405 154 149 194 202 156 201 -7 -1 -92 -78 -188 -173z"/>
<path d="M8763 8151 c-80 -54 -95 -73 -72 -87 14 -8 179 103 179 121 0 29 -29
19 -107 -34z"/>
<path d="M14392 8608 c-11 -14 34 -207 103 -433 40 -133 60 -174 78 -156 8 8
-3 52 -36 158 -26 82 -63 211 -83 288 -20 77 -39 144 -43 148 -4 4 -13 2 -19
-5z"/>
<path d="M13524 8496 c-9 -23 25 -187 42 -205 24 -26 28 14 9 107 -19 92 -39
130 -51 98z"/>
<path d="M13580 8216 c0 -8 9 -40 21 -71 18 -49 35 -66 51 -50 10 11 -40 130
-56 133 -9 2 -16 -3 -16 -12z"/>
<path d="M14597 7907 c-6 -15 38 -125 59 -146 28 -30 27 18 -3 86 -29 67 -46
85 -56 60z"/>
<path d="M17972 15437 c-116 -117 -212 -219 -212 -227 0 -17 419 -440 435
-440 6 0 109 99 230 220 l219 220 -219 220 c-121 121 -224 220 -230 220 -5 0
-106 -96 -223 -213z m426 -424 c-106 -106 -197 -192 -203 -191 -5 0 -95 88
-200 195 l-190 193 195 195 195 195 197 -197 198 -198 -192 -192z"/>
<path d="M1887 15503 c-4 -3 -7 -251 -7 -550 l0 -543 345 0 345 0 0 550 0 550
-338 0 c-186 0 -342 -3 -345 -7z m643 -545 l0 -513 -305 3 -305 3 0 509 0 510
305 0 305 0 0 -512z"/>
<path d="M2870 14960 l0 -550 345 0 345 0 -2 548 -3 547 -342 3 -343 2 0 -550z
m650 0 l0 -510 -305 0 -305 0 0 510 0 510 305 0 305 0 0 -510z"/>
<path d="M3855 15498 c-3 -7 -4 -254 -3 -548 l3 -535 339 -3 c265 -2 341 1
348 10 9 15 11 1048 2 1072 -5 14 -45 16 -345 16 -263 0 -341 -3 -344 -12z
m655 -538 l0 -509 -306 -3 c-168 -2 -308 -1 -310 1 -2 2 -4 233 -4 513 l0 508
310 0 310 0 0 -510z"/>
<path d="M4840 14960 l0 -550 345 0 345 0 -2 548 -3 547 -342 3 -343 2 0 -550z
m650 0 l0 -509 -305 -3 -305 -3 0 513 0 512 305 0 305 0 0 -510z"/>
<path d="M5825 15498 c-3 -7 -4 -254 -3 -548 l3 -535 345 0 345 0 3 525 c1
289 0 535 -3 548 l-5 22 -341 0 c-262 0 -341 -3 -344 -12z m655 -538 l0 -510
-310 0 -310 0 0 510 0 510 310 0 310 0 0 -510z"/>
<path d="M13815 15488 c-3 -13 -4 -259 -3 -548 l3 -525 345 0 345 0 0 545 0
545 -342 3 -343 2 -5 -22z m655 -528 l0 -510 -310 0 -310 0 0 510 0 510 310 0
310 0 0 -510z"/>
<path d="M14806 15494 c-8 -20 -8 -1047 0 -1068 5 -14 46 -16 350 -16 l344 0
-2 548 -3 547 -341 3 c-305 2 -342 1 -348 -14z m654 -534 l0 -509 -306 -3
c-168 -2 -308 -1 -310 1 -2 2 -4 233 -4 513 l0 508 310 0 310 0 0 -510z"/>
<path d="M1887 13943 c-4 -3 -7 -251 -7 -550 l0 -543 345 0 345 0 0 550 0 550
-338 0 c-186 0 -342 -3 -345 -7z"/>
<path d="M2870 13400 l0 -550 345 0 345 0 -2 548 -3 547 -342 3 -343 2 0 -550z"/>
<path d="M3857 13943 c-4 -3 -7 -251 -7 -550 l0 -543 344 0 c304 0 345 2 350
16 8 20 8 1048 0 1068 -5 14 -45 16 -343 16 -186 0 -341 -3 -344 -7z"/>
<path d="M4840 13400 l0 -550 345 0 345 0 -2 548 -3 547 -342 3 -343 2 0 -550z
m650 0 l0 -509 -306 -3 c-168 -2 -308 -1 -310 1 -2 2 -4 233 -4 513 l0 508
310 0 310 0 0 -510z"/>
<path d="M5825 13938 c-3 -7 -4 -254 -3 -548 l3 -535 345 0 345 0 0 545 0 545
-343 3 c-269 2 -344 0 -347 -10z m655 -538 l0 -509 -306 -3 c-168 -2 -308 -1
-310 1 -2 2 -4 233 -4 513 l0 508 310 0 310 0 0 -510z"/>
<path d="M13815 13928 c-3 -13 -4 -259 -3 -548 l3 -525 345 0 345 0 0 545 0
545 -342 3 -343 2 -5 -22z"/>
<path d="M14806 13934 c-9 -24 -7 -1057 2 -1072 7 -9 83 -12 348 -10 l339 3 0
545 0 545 -341 3 c-305 2 -342 1 -348 -14z"/>
<path d="M15827 13943 c-4 -3 -7 -251 -7 -550 l0 -543 185 0 185 0 0 -408 c0
-457 3 -487 66 -579 63 -92 161 -143 291 -151 46 -2 83 -7 83 -10 0 -3 -116
-121 -257 -263 -142 -142 -259 -262 -261 -268 -2 -6 3 -13 10 -16 13 -5 104
47 723 414 l230 136 430 5 430 5 61 28 c77 36 145 104 181 182 l28 60 0 475
c0 440 -1 479 -19 525 -39 105 -120 182 -225 215 -61 19 -90 20 -757 20 l-694
0 -2 363 -3 362 -336 3 c-184 1 -338 -1 -342 -5z m643 -373 c0 -187 0 -343 1
-347 1 -5 -20 -16 -46 -26 -122 -46 -198 -138 -229 -279 l-6 -28 -165 0 -165
0 0 510 0 510 305 0 305 0 0 -340z m1476 -405 c98 -29 177 -110 208 -215 24
-80 24 -890 0 -970 -32 -108 -123 -196 -224 -219 -27 -6 -211 -11 -449 -11
l-404 0 -131 -77 c-72 -42 -251 -148 -398 -235 -147 -87 -271 -158 -275 -158
-4 0 93 101 217 225 142 142 221 228 215 234 -6 5 -62 11 -125 13 -101 3 -122
6 -172 31 -65 32 -121 89 -152 156 -20 45 -21 61 -24 504 -2 387 -1 467 12
511 29 97 102 174 199 207 48 17 106 18 753 19 587 0 708 -2 750 -15z"/>
<path d="M16699 12521 c-60 -60 -26 -171 58 -187 110 -21 177 118 92 190 -45
38 -110 36 -150 -3z"/>
<path d="M17147 12529 c-15 -11 -32 -37 -38 -58 -21 -71 34 -141 110 -141 39
0 96 50 105 91 7 38 -14 91 -45 113 -33 23 -100 21 -132 -5z"/>
<path d="M17574 12516 c-40 -40 -45 -83 -15 -132 55 -90 201 -52 201 52 0 70
-41 113 -108 114 -37 0 -50 -6 -78 -34z"/>
<path d="M1887 12383 c-4 -3 -7 -251 -7 -549 l0 -543 335 -3 c184 -2 340 -1
345 0 6 2 10 197 10 553 l0 549 -338 0 c-186 0 -342 -3 -345 -7z m643 -538 c0
-278 1 -508 3 -512 1 -5 -136 -9 -305 -11 l-308 -2 0 515 0 515 305 0 305 0 0
-505z"/>
<path d="M2870 11840 l0 -550 345 0 345 0 -2 548 -3 547 -342 3 -343 2 0 -550z
m650 0 l0 -510 -305 0 -305 0 0 510 0 510 305 0 305 0 0 -510z"/>
<path d="M3857 12383 c-10 -10 -8 -1081 2 -1087 4 -3 158 -6 341 -6 263 -1
335 2 341 12 10 15 12 1048 3 1072 -5 14 -45 16 -343 16 -186 0 -341 -3 -344
-7z m645 -543 l3 -510 -307 0 -308 0 0 510 0 510 305 0 305 0 2 -510z"/>
<path d="M3390 9803 c-19 -2 -82 -13 -140 -24 -566 -109 -1042 -525 -1226
-1072 -65 -193 -79 -287 -79 -527 1 -184 4 -230 23 -317 142 -654 622 -1134
1275 -1275 87 -19 134 -22 317 -22 243 -1 342 14 533 80 1008 351 1412 1554
821 2442 -239 358 -615 608 -1044 693 -101 20 -382 33 -480 22z m485 -63 c472
-101 862 -391 1088 -810 234 -433 248 -970 37 -1418 -212 -449 -602 -761
-1100 -879 -155 -37 -427 -43 -595 -15 -335 57 -619 205 -861 446 -226 227
-368 488 -435 798 -30 136 -37 407 -15 556 97 659 615 1201 1264 1321 159 30
153 30 342 26 130 -3 201 -9 275 -25z"/>
<path d="M3317 9580 c-293 -53 -542 -184 -752 -395 -218 -217 -350 -474 -400
-773 -14 -82 -16 -140 -12 -275 8 -245 41 -378 147 -592 188 -377 538 -649
960 -747 126 -29 383 -36 522 -14 593 93 1046 531 1175 1136 27 127 24 409 -5
547 -120 560 -540 983 -1097 1105 -137 30 -397 34 -538 8z m559 -54 c267 -67
469 -180 659 -371 260 -261 389 -557 402 -925 8 -250 -31 -432 -142 -655 -77
-156 -161 -271 -287 -390 -239 -228 -544 -359 -868 -374 -211 -9 -354 10 -530
72 -336 117 -618 365 -777 682 -233 462 -185 1028 121 1435 80 106 238 259
336 325 157 105 363 188 530 215 41 6 82 13 90 15 8 2 94 2 190 0 146 -3 192
-8 276 -29z"/>
<path d="M2770 8905 c-8 -9 -9 -19 -4 -24 61 -54 708 -642 733 -666 l34 -33
-27 -24 c-198 -172 -374 -336 -373 -347 1 -8 7 -16 12 -18 9 -3 318 268 413
361 l33 32 -198 180 c-109 98 -272 247 -363 330 -263 241 -246 226 -260 209z"/>
<path d="M16045 9366 c-39 -17 -70 -52 -90 -98 -13 -33 -15 -154 -15 -1003 0
-798 2 -971 14 -998 16 -39 61 -82 99 -96 19 -8 384 -11 1160 -11 l1132 0 40
23 c22 13 49 40 62 62 l23 40 0 978 c0 808 -2 983 -14 1010 -16 39 -61 82 -99
96 -19 8 -382 11 -1155 11 -917 -1 -1133 -3 -1157 -14z m2316 -41 c16 -9 39
-30 49 -48 19 -31 20 -58 20 -1007 0 -949 -1 -976 -20 -1007 -10 -18 -34 -40
-52 -50 -31 -17 -94 -18 -1153 -18 -1102 0 -1121 0 -1154 20 -18 11 -42 36
-52 55 -19 34 -19 73 -17 1013 l3 978 42 40 42 39 1131 0 c1002 0 1134 -2
1161 -15z"/>
<path d="M16450 9050 l0 -100 750 0 c413 0 753 0 756 0 3 0 6 44 6 98 l0 97
-756 3 -756 2 0 -100z m1475 -5 l0 -60 -717 -3 -718 -2 0 65 0 65 718 -2 717
-3 0 -60z"/>
<path d="M16083 8704 c-2 -5 -2 -62 -1 -125 l3 -114 128 -3 128 -3 -3 126 -3
126 -124 2 c-79 1 -125 -2 -128 -9z m215 -116 l3 -88 -91 0 -90 0 0 83 c0 46
3 87 7 91 4 4 43 5 88 4 l80 -3 3 -87z"/>
<path d="M16484 8711 c-2 -2 -4 -60 -4 -128 l0 -124 128 3 127 3 0 123 0 123
-123 2 c-68 1 -126 0 -128 -2z m214 -123 l3 -88 -91 0 -90 0 0 90 0 91 88 -3
87 -3 3 -87z"/>
<path d="M16884 8711 c-2 -2 -4 -60 -4 -128 l0 -123 125 0 125 0 0 125 c0 123
0 125 -22 125 -13 1 -67 2 -121 3 -54 1 -101 0 -103 -2z m211 -121 l0 -85 -87
-3 -88 -3 0 91 0 91 88 -3 87 -3 0 -85z"/>
<path d="M17284 8711 c-2 -2 -4 -60 -4 -128 l0 -123 125 0 125 0 0 128 0 127
-121 0 c-66 0 -123 -2 -125 -4z m206 -121 l0 -90 -85 0 -85 0 0 90 0 90 85 0
85 0 0 -90z"/>
<path d="M17680 8588 l0 -128 125 0 126 0 -3 126 -3 127 -122 1 -123 1 0 -127z
m210 2 l0 -91 -87 3 -88 3 -3 74 c-2 41 -1 80 2 88 4 9 28 13 91 13 l85 0 0
-90z"/>
<path d="M18080 8585 l0 -125 125 0 125 0 0 125 0 125 -125 0 -125 0 0 -125z
m210 5 l0 -90 -85 0 -85 0 0 90 0 90 85 0 85 0 0 -90z"/>
<path d="M16080 8135 l0 -125 130 0 130 0 0 125 0 125 -130 0 -130 0 0 -125z
m218 3 l3 -88 -91 0 -90 0 0 83 c0 46 3 87 7 91 4 4 43 5 88 4 l80 -3 3 -87z"/>
<path d="M16480 8135 l0 -125 130 0 130 0 0 125 0 125 -130 0 -130 0 0 -125z
m218 3 l3 -88 -91 0 -90 0 0 83 c0 46 3 87 7 91 4 4 43 5 88 4 l80 -3 3 -87z"/>
<path d="M16880 8135 l0 -125 125 0 125 0 0 125 0 125 -125 0 -125 0 0 -125z
m215 5 l0 -85 -87 -3 -88 -3 0 91 0 91 88 -3 87 -3 0 -85z"/>
<path d="M17280 8135 l0 -125 125 0 125 0 0 125 0 125 -125 0 -125 0 0 -125z
m211 91 c2 -2 3 -43 1 -90 l-3 -86 -85 0 -84 0 0 90 0 90 83 0 c46 0 86 -2 88
-4z"/>
<path d="M17680 8135 l0 -125 125 0 125 0 0 125 0 125 -125 0 -125 0 0 -125z
m208 2 l3 -88 -88 3 -88 3 -3 74 c-2 41 -1 80 2 88 4 11 25 13 88 11 l83 -3 3
-88z"/>
<path d="M18080 8135 l0 -125 125 0 125 0 0 125 0 125 -125 0 -125 0 0 -125z
m210 5 l0 -90 -85 0 -85 0 0 90 0 90 85 0 85 0 0 -90z"/>
<path d="M16080 7685 l0 -125 130 0 130 0 0 125 0 125 -130 0 -130 0 0 -125z
m220 0 l0 -85 -90 0 -90 0 0 85 0 85 90 0 90 0 0 -85z"/>
<path d="M16480 7685 l0 -125 130 0 130 0 0 125 0 125 -130 0 -130 0 0 -125z
m220 0 l0 -85 -90 0 -90 0 0 85 0 85 90 0 90 0 0 -85z"/>
<path d="M16880 7685 l0 -125 125 0 125 0 0 125 0 125 -125 0 -125 0 0 -125z
m220 0 l0 -85 -90 0 -90 0 0 85 0 85 90 0 90 0 0 -85z"/>
<path d="M17280 7685 l0 -125 125 0 125 0 0 125 0 125 -125 0 -125 0 0 -125z
m210 0 l0 -85 -85 0 -85 0 0 85 0 85 85 0 85 0 0 -85z"/>
<path d="M17680 7685 l0 -125 125 0 125 0 0 125 0 125 -125 0 -125 0 0 -125z
m210 0 l0 -86 -87 3 -88 3 -3 83 -3 82 91 0 90 0 0 -85z"/>
<path d="M18080 7685 l0 -125 125 0 125 0 0 125 0 125 -125 0 -125 0 0 -125z
m210 0 l0 -85 -85 0 -85 0 0 85 0 85 85 0 85 0 0 -85z"/>
<path d="M1807 6532 c-75 -75 -137 -142 -137 -147 0 -13 272 -285 285 -285 20
0 275 265 275 285 0 21 -256 285 -275 285 -6 0 -72 -62 -148 -138z m266 -30
l117 -117 -120 -120 -120 -120 -115 115 c-63 63 -115 119 -115 125 0 10 220
235 230 235 3 0 58 -53 123 -118z"/>
<path d="M2484 4851 c-53 -33 -66 -99 -37 -192 14 -44 31 -68 97 -133 l80 -79
24 64 c44 117 29 264 -33 326 -39 39 -83 44 -131 14z"/>
<path d="M740 4797 c-14 -7 -34 -28 -44 -48 -30 -55 -16 -103 49 -166 57 -55
82 -66 204 -86 l75 -12 70 -107 c39 -59 72 -105 75 -102 3 2 -28 52 -67 110
-53 76 -76 122 -86 163 -24 101 -79 184 -155 233 -49 30 -82 35 -121 15z"/>
<path d="M16295 4090 l-140 -140 140 -140 c77 -77 147 -140 155 -140 20 0 280
261 280 280 0 20 -261 280 -280 280 -9 0 -78 -63 -155 -140z m270 -260 l-120
-120 -120 120 -120 120 120 120 120 120 120 -120 120 -120 -120 -120z"/>
</g>
</svg>
