<?xml version="1.0" standalone="no"?>
<!DOCTYPE svg PUBLIC "-//W3C//DTD SVG 20010904//EN"
 "http://www.w3.org/TR/2001/REC-SVG-20010904/DTD/svg10.dtd">
<svg version="1.0" xmlns="http://www.w3.org/2000/svg"
 width="139.000000pt" height="74.000000pt" viewBox="0 0 139.000000 74.000000"
 preserveAspectRatio="xMidYMid meet">

<g transform="translate(0.000000,74.000000) scale(0.100000,-0.100000)"
fill="#000000" stroke="none">
<path d="M1350 246 c0 -10 9 -16 21 -16 24 0 21 23 -4 28 -10 2 -17 -3 -17
-12z"/>
<path d="M23 198 c-21 -10 -23 -17 -23 -105 0 -86 1 -93 20 -93 16 0 20 7 20
30 0 27 3 30 34 30 43 0 59 20 59 72 0 65 -50 95 -110 66z m66 -32 c7 -8 11
-27 9 -43 -2 -22 -9 -29 -30 -31 -26 -3 -28 -1 -28 36 0 21 3 42 7 45 11 11
30 8 42 -7z"/>
<path d="M183 200 c-21 -8 -23 -16 -23 -75 0 -58 2 -65 20 -65 16 0 19 8 22
58 l3 57 33 -3 c22 -1 32 2 32 12 0 25 -45 33 -87 16z"/>
<path d="M309 191 c-18 -14 -24 -29 -24 -59 0 -52 18 -72 65 -72 47 0 70 24
70 73 0 67 -61 99 -111 58z m70 -25 c7 -8 11 -27 9 -43 -3 -24 -8 -28 -33 -28
-25 0 -30 4 -33 28 -4 30 12 57 33 57 7 0 18 -6 24 -14z"/>
<path d="M472 194 c-16 -11 -22 -25 -22 -55 0 -63 13 -79 65 -79 33 0 45 4 45
14 0 10 -13 16 -37 18 -35 3 -38 6 -41 35 -4 36 24 59 58 48 14 -4 20 -2 20 8
0 29 -53 36 -88 11z"/>
<path d="M773 200 c-21 -8 -23 -16 -23 -75 0 -50 3 -65 15 -65 10 0 15 15 17
58 l3 57 38 -2 c26 -2 37 2 37 11 0 25 -45 33 -87 16z"/>
<path d="M898 203 c-10 -2 -18 -11 -18 -20 0 -11 6 -14 24 -9 27 7 56 -1 56
-15 0 -5 -15 -9 -33 -9 -38 0 -57 -15 -57 -45 0 -31 19 -45 65 -45 61 0 69 9
63 71 -7 70 -34 89 -100 72z m62 -97 c0 -17 -24 -28 -45 -20 -27 11 -17 34 15
34 19 0 30 -5 30 -14z"/>
<path d="M1053 200 c-29 -12 -40 -68 -21 -107 10 -22 21 -29 51 -31 34 -3 37
-6 37 -33 0 -19 5 -29 15 -29 12 0 15 17 15 95 0 93 -1 96 -26 105 -30 12 -42
12 -71 0z m65 -68 c3 -42 2 -43 -25 -40 -22 2 -29 9 -31 31 -4 33 14 59 37 55
11 -2 17 -16 19 -46z"/>
<path d="M590 141 c0 -70 12 -83 72 -79 l43 3 3 68 c2 55 0 67 -13 67 -12 0
-15 -12 -15 -55 0 -51 -2 -55 -24 -55 -28 0 -36 16 -36 71 0 28 -4 39 -15 39
-12 0 -15 -13 -15 -59z"/>
<path d="M1180 152 c0 -63 21 -92 65 -92 60 0 65 6 65 76 0 50 -3 64 -15 64
-12 0 -15 -13 -15 -55 0 -54 0 -55 -30 -55 -30 0 -30 1 -30 55 0 48 -2 55 -20
55 -17 0 -20 -7 -20 -48z"/>
<path d="M1350 130 c0 -56 3 -70 15 -70 12 0 15 14 15 70 0 56 -3 70 -15 70
-12 0 -15 -14 -15 -70z"/>
</g>
</svg>
