<?xml version="1.0" standalone="no"?>
<!DOCTYPE svg PUBLIC "-//W3C//DTD SVG 20010904//EN"
 "http://www.w3.org/TR/2001/REC-SVG-20010904/DTD/svg10.dtd">
<svg version="1.0" xmlns="http://www.w3.org/2000/svg"
 width="144.000000pt" height="27.000000pt" viewBox="0 0 144.000000 27.000000"
 preserveAspectRatio="xMidYMid meet">

<g transform="translate(0.000000,27.000000) scale(0.100000,-0.100000)"
fill="#000000" stroke="none">
<path d="M347 213 c-4 -3 -7 -39 -7 -80 0 -58 3 -73 15 -73 8 0 15 9 15 20 0
15 7 20 24 20 47 0 71 53 46 101 -8 14 -21 19 -49 19 -21 0 -41 -3 -44 -7z
m71 -47 c4 -30 -12 -48 -35 -39 -14 5 -18 54 -6 67 15 15 38 -1 41 -28z"/>
<path d="M477 213 c-4 -3 -7 -28 -7 -55 0 -36 4 -48 15 -48 11 0 15 12 15 46
0 46 0 46 30 42 20 -3 30 0 30 9 0 14 -70 19 -83 6z"/>
<path d="M580 201 c-25 -48 -1 -101 45 -101 46 0 70 53 45 101 -7 13 -21 19
-45 19 -24 0 -38 -6 -45 -19z m65 -41 c0 -25 -5 -36 -17 -38 -24 -5 -42 32
-28 59 18 32 45 20 45 -21z"/>
<path d="M710 201 c-15 -29 -12 -67 6 -86 19 -19 65 -16 72 4 3 9 -1 11 -16 7
-19 -6 -52 15 -52 33 0 21 29 44 49 38 14 -3 21 -1 21 9 0 23 -67 18 -80 -5z"/>
<path d="M810 188 c0 -73 23 -97 76 -84 22 6 24 12 24 61 0 67 -18 73 -22 8
-3 -40 -6 -48 -23 -48 -17 0 -20 8 -23 48 -2 33 -7 47 -18 47 -9 0 -14 -11
-14 -32z"/>
<path d="M953 213 c-20 -7 -17 -103 2 -103 11 0 15 12 15 46 0 46 0 46 30 42
20 -3 30 0 30 9 0 13 -51 17 -77 6z"/>
<path d="M1050 207 c0 -7 11 -13 27 -12 14 0 28 -6 30 -12 3 -9 -7 -13 -30
-13 -36 0 -51 -17 -41 -45 8 -19 38 -28 74 -20 28 6 30 10 30 49 0 23 -5 47
-12 54 -16 16 -78 16 -78 -1z m60 -62 c0 -9 -7 -18 -16 -22 -18 -7 -39 11 -30
26 11 17 46 13 46 -4z"/>
<path d="M1172 208 c-7 -7 -12 -29 -12 -50 0 -40 23 -62 58 -56 11 2 18 -5 20
-19 2 -13 10 -23 18 -23 11 0 14 16 14 68 0 76 -9 92 -55 92 -17 0 -36 -5 -43
-12z m66 -42 c4 -30 -12 -48 -35 -39 -14 5 -18 54 -6 67 15 15 38 -1 41 -28z"/>
<path d="M1290 170 c0 -57 21 -76 71 -65 28 6 29 9 29 61 0 40 -4 54 -14 54
-11 0 -16 -14 -18 -47 -2 -35 -7 -48 -18 -48 -11 0 -16 13 -18 48 -2 33 -7 47
-18 47 -10 0 -14 -13 -14 -50z"/>
<path d="M1420 169 c0 -31 4 -48 10 -44 6 3 10 26 10 51 0 24 -4 44 -10 44 -5
0 -10 -23 -10 -51z"/>
</g>
</svg>
