<?xml version="1.0" standalone="no"?>
<!DOCTYPE svg PUBLIC "-//W3C//DTD SVG 20010904//EN"
 "http://www.w3.org/TR/2001/REC-SVG-20010904/DTD/svg10.dtd">
<svg version="1.0" xmlns="http://www.w3.org/2000/svg"
 width="500.000000pt" height="297.000000pt" viewBox="0 0 500.000000 297.000000"
 preserveAspectRatio="xMidYMid meet">

<g transform="translate(0.000000,297.000000) scale(0.100000,-0.100000)"
fill="#000000" stroke="none">
<path d="M1500 2618 l0 -45 83 -41 c138 -68 257 -168 354 -297 25 -33 49 -60
53 -60 5 0 12 -4 17 -9 5 -5 2 -6 -6 -1 -16 9 -17 13 33 -89 22 -44 45 -98 52
-120 7 -23 13 -33 13 -24 2 49 -111 314 -129 303 -5 -3 -7 0 -5 8 3 7 -18 44
-47 83 -98 130 -201 219 -343 296 l-75 40 0 -44z"/>
<path d="M1201 2042 c-2 -29 25 -114 71 -232 86 -217 78 -268 -52 -327 -104
-48 -164 -96 -221 -177 -74 -104 -102 -200 -103 -351 -1 -66 3 -133 7 -150 8
-28 11 -24 41 65 84 244 181 386 299 435 20 8 61 15 92 15 99 0 189 -47 316
-168 63 -59 69 -62 69 -39 0 67 -48 174 -107 238 -31 33 -27 65 10 93 25 18
45 21 164 24 l135 4 -9 -34 c-14 -56 -7 -150 14 -200 27 -60 88 -127 138 -149
118 -54 314 4 402 119 29 39 58 110 49 120 -3 2 -34 1 -69 -3 -60 -7 -66 -10
-77 -36 -28 -66 -110 -109 -179 -94 -27 6 -91 59 -91 75 0 4 81 44 181 90 99
46 182 87 185 92 8 13 -40 89 -83 130 -102 100 -280 89 -397 -24 -51 -49 -51
-49 -93 -39 -33 9 -55 7 -105 -5 -82 -21 -185 -15 -256 16 -107 46 -215 201
-293 420 -21 58 -38 99 -38 92z m1038 -538 c17 -14 31 -31 31 -37 0 -7 -47
-33 -103 -59 -108 -49 -117 -49 -117 5 0 97 116 153 189 91z"/>
<path d="M2101 1894 c0 -11 3 -14 6 -6 3 7 2 16 -1 19 -3 4 -6 -2 -5 -13z"/>
<path d="M1608 1888 c20 -20 14 -25 -30 -32 -42 -7 -42 -8 -20 -20 l24 -13
-33 -21 c-28 -18 -31 -22 -16 -28 14 -5 15 -9 6 -20 -10 -12 -9 -13 5 -8 11 4
16 1 16 -11 0 -30 38 -71 92 -99 l53 -28 14 21 c7 12 19 21 26 21 7 0 18 23
25 53 7 28 20 61 29 72 46 55 47 57 18 50 -24 -7 -27 -4 -28 21 0 16 -3 23 -6
17 -7 -20 -24 -15 -56 14 -19 19 -26 22 -22 10 9 -21 4 -21 -60 -2 -34 11 -46
12 -37 3z"/>
<path d="M3352 1632 c-71 -26 -118 -66 -156 -132 -29 -51 -31 -62 -31 -150 0
-102 11 -137 64 -193 76 -83 265 -111 385 -58 47 20 116 77 116 95 0 6 -29 20
-65 30 -66 19 -66 19 -88 -2 -47 -44 -115 -54 -174 -25 -39 18 -73 65 -73 100
0 23 0 23 208 25 l207 3 -3 40 c-9 119 -70 217 -160 257 -64 29 -165 33 -230
10z m155 -112 c35 -21 68 -74 59 -96 -5 -12 -27 -14 -118 -12 l-113 3 3 25 c5
51 60 100 112 100 14 0 39 -9 57 -20z"/>
<path d="M2490 1573 l0 -63 40 0 40 0 0 -150 0 -150 -40 0 -40 0 0 -65 0 -65
170 0 171 0 -3 63 -3 62 -42 3 -43 3 0 124 c0 122 1 125 25 141 14 9 45 19 68
21 69 8 72 1 74 -221 l3 -191 125 -3 125 -3 0 66 0 65 -40 0 -40 0 0 125 c0
157 -12 217 -55 263 -30 33 -38 36 -99 40 -56 4 -74 0 -120 -22 -65 -32 -66
-32 -66 -1 l0 25 -125 -3 -125 -2 0 -62z"/>
<path d="M3774 1631 c-2 -2 -4 -31 -4 -63 l0 -58 45 0 45 0 0 -150 0 -150 -45
0 -45 0 0 -65 0 -65 180 0 180 0 0 65 0 65 -50 0 -50 0 0 120 c0 113 1 120 23
134 34 22 105 38 139 31 49 -11 58 -48 58 -245 l0 -170 130 0 130 0 0 65 0 65
-45 0 -45 0 0 126 0 125 38 16 c20 9 56 18 79 21 35 4 46 0 67 -21 l26 -26 0
-186 0 -185 135 0 135 0 0 65 0 65 -50 0 -50 0 0 148 c0 176 -8 212 -57 249
-34 26 -43 28 -132 28 -89 0 -101 -3 -160 -33 l-65 -32 -25 24 c-36 35 -73 46
-144 46 -42 0 -81 -8 -119 -24 -60 -25 -68 -24 -68 5 0 16 -12 17 -126 16 -69
-1 -127 -4 -130 -6z"/>
<path d="M191 1434 c0 -11 3 -14 6 -6 3 7 2 16 -1 19 -3 4 -6 -2 -5 -13z"/>
<path d="M1133 483 c15 -2 39 -2 55 0 15 2 2 4 -28 4 -30 0 -43 -2 -27 -4z"/>
</g>
</svg>
