<?xml version="1.0" standalone="no"?>
<!DOCTYPE svg PUBLIC "-//W3C//DTD SVG 20010904//EN"
 "http://www.w3.org/TR/2001/REC-SVG-20010904/DTD/svg10.dtd">
<svg version="1.0" xmlns="http://www.w3.org/2000/svg"
 width="2000.000000pt" height="2000.000000pt" viewBox="0 0 2000.000000 2000.000000"
 preserveAspectRatio="xMidYMid meet">

<g transform="translate(0.000000,2000.000000) scale(0.100000,-0.100000)"
fill="#000000" stroke="none">
<path d="M11775 19371 c-28 -9 -99 -45 -160 -80 -60 -35 -427 -247 -815 -471
-388 -224 -750 -433 -805 -465 -126 -73 -318 -184 -482 -278 -167 -96 -944
-545 -1143 -660 -85 -50 -243 -141 -350 -202 -292 -169 -633 -365 -740 -427
-178 -103 -596 -345 -875 -505 -110 -64 -240 -139 -290 -168 -102 -60 -462
-268 -515 -298 -32 -17 -369 -212 -965 -557 -490 -283 -682 -394 -713 -412
-18 -10 -93 -53 -165 -95 -139 -80 -467 -269 -777 -447 -204 -117 -279 -182
-332 -287 -62 -125 -58 119 -58 -3186 0 -1657 -2 -3013 -5 -3013 -3 0 -13 4
-23 9 -52 27 -153 71 -162 71 -6 0 -18 5 -28 10 -52 30 -318 98 -345 87 -30
-11 -45 -51 -49 -127 -2 -64 -7 -78 -27 -98 -36 -33 -48 -15 -56 86 -9 118
-42 185 -89 185 -14 0 -24 3 -21 7 12 19 -267 7 -490 -20 -44 -6 -93 -10 -108
-10 -52 1 -262 -30 -332 -48 l-70 -18 3 -184 c1 -102 6 -209 11 -240 23 -139
91 -238 199 -288 61 -29 61 -29 412 -25 52 1 104 1 115 0 33 -4 65 -30 65 -54
0 -18 -9 -25 -42 -33 -24 -7 -95 -27 -158 -45 -63 -18 -139 -38 -167 -45 -29
-7 -53 -16 -53 -20 0 -4 -6 -8 -12 -7 -39 1 -60 -6 -87 -29 -52 -44 -43 -97
51 -291 51 -106 96 -175 109 -168 5 4 6 0 4 -7 -7 -17 88 -102 157 -141 28
-16 48 -24 44 -19 -3 5 14 -1 39 -13 67 -34 216 -50 340 -37 118 13 276 43
271 51 -2 3 8 7 22 7 15 1 36 4 47 7 11 3 28 6 38 6 10 1 15 6 12 11 -9 15 11
12 23 -3 8 -10 0 -19 -34 -41 -24 -15 -41 -33 -37 -38 3 -7 1 -8 -6 -4 -6 4
-17 3 -24 -3 -7 -5 -45 -23 -85 -39 -39 -16 -69 -32 -64 -37 4 -5 2 -5 -5 -1
-13 7 -146 -33 -151 -46 -2 -4 -8 -6 -13 -2 -18 11 -75 -16 -91 -44 -17 -29
-10 -61 11 -48 6 4 9 2 6 -6 -7 -16 50 -52 67 -42 6 4 8 3 5 -3 -4 -6 0 -14 9
-17 8 -3 12 -2 9 3 -3 5 0 13 6 17 7 4 9 3 6 -2 -3 -6 -3 -14 1 -20 7 -10 103
-42 149 -49 16 -3 52 -11 82 -20 179 -49 432 -56 691 -20 25 4 83 6 130 5 62
0 101 5 143 19 l58 20 -45 -50 c-55 -62 -100 -152 -116 -235 -15 -78 -2 -147
47 -245 52 -104 115 -162 283 -258 80 -46 235 -136 345 -199 110 -63 220 -127
245 -142 25 -15 110 -64 190 -110 80 -46 181 -104 225 -130 44 -26 321 -186
615 -355 467 -269 1124 -649 1645 -950 188 -109 620 -358 855 -493 91 -52 260
-150 375 -217 557 -324 552 -322 715 -312 103 6 160 26 300 108 58 34 339 197
625 362 505 291 580 335 940 542 94 54 226 130 295 170 69 40 170 98 225 130
55 31 276 159 490 283 369 213 664 383 1190 687 127 73 403 233 615 355 212
123 459 266 550 318 629 363 870 500 870 494 0 -4 4 -2 8 4 4 7 8 -13 9 -45 4
-141 70 -414 155 -640 21 -57 37 -109 35 -115 -2 -6 -21 6 -42 27 -35 35 -37
41 -32 83 7 65 -10 52 -63 -47 -25 -47 -72 -125 -105 -175 -34 -50 -71 -120
-85 -161 l-24 -73 23 -47 c12 -27 51 -91 87 -143 77 -117 94 -161 94 -254 0
-144 37 -259 124 -379 83 -117 224 -231 359 -291 l57 -25 0 -52 c0 -46 4 -55
35 -83 19 -18 84 -61 143 -97 143 -85 172 -113 228 -222 26 -51 65 -113 86
-139 81 -97 228 -186 378 -228 161 -44 376 -47 515 -5 65 19 139 68 164 108
16 27 35 117 24 117 -1 0 -19 -17 -37 -38 -80 -88 -197 -124 -401 -126 -164
-1 -241 15 -350 72 l-70 37 1 46 c1 107 106 242 236 304 75 36 185 65 247 65
l34 0 -39 35 c-53 46 -93 58 -174 53 -81 -6 -177 -47 -238 -103 -44 -39 -75
-43 -80 -9 -8 55 178 160 306 172 l64 7 -30 32 c-69 72 -232 43 -369 -66 -38
-30 -53 -37 -66 -30 -25 14 -21 31 16 66 66 63 159 107 267 127 l60 11 -32 34
c-31 33 -32 33 -103 29 -83 -5 -161 -37 -243 -99 -54 -41 -84 -47 -90 -17 -10
54 215 178 325 178 38 0 41 8 13 42 -52 67 -247 26 -368 -77 -48 -42 -75 -41
-70 2 2 22 18 38 73 75 81 55 168 87 243 91 29 1 52 7 52 12 0 15 -39 133 -62
186 -12 28 -29 51 -44 58 -59 27 -235 3 -294 -39 -16 -11 -42 -45 -60 -76 -35
-63 -81 -90 -138 -80 -43 7 -70 30 -92 81 -18 40 -18 40 -28 15 -5 -14 -10
-67 -10 -119 -1 -82 -7 -133 -28 -229 -4 -21 -6 -22 -40 -7 -105 44 -238 154
-290 241 l-23 38 26 35 c67 87 151 135 270 153 43 6 79 12 81 13 1 1 -8 29
-20 63 -24 68 -16 65 -131 40 -55 -12 -77 -6 -77 21 0 36 131 64 173 36 26
-17 63 -15 252 10 53 7 72 15 37 15 -12 0 -22 5 -22 10 0 13 33 13 46 0 12
-12 86 9 77 23 -3 6 -1 7 6 3 12 -8 131 54 161 84 17 17 17 22 -2 111 -10 52
-21 108 -24 124 -17 106 -49 253 -54 241 -3 -9 -5 14 -6 50 0 43 -5 68 -14 74
-7 4 -10 12 -7 18 9 13 -19 140 -35 159 -8 11 -9 14 -1 10 14 -9 34 56 37 114
0 21 4 35 7 33 10 -6 30 111 23 132 -5 16 -4 16 5 4 9 -13 11 -12 11 5 0 11
18 101 40 200 22 99 43 193 45 210 3 16 14 68 24 115 23 96 82 392 86 430 7
62 19 92 44 109 14 10 107 64 206 121 99 57 263 151 365 210 102 59 403 232
670 386 540 310 577 338 639 467 58 122 63 200 19 325 l-22 63 29 25 c17 13
83 63 147 111 81 60 113 90 105 96 -8 6 -6 7 5 3 19 -6 165 89 161 104 -2 5 3
7 10 4 17 -6 99 55 90 68 -3 7 -1 8 5 4 15 -9 242 147 242 166 0 4 7 8 16 8 8
0 12 5 9 10 -3 6 -1 10 4 10 18 0 61 42 54 53 -3 6 -1 7 4 4 26 -16 101 139
108 219 5 73 -8 125 -47 186 -37 58 -128 122 -161 113 -17 -5 -19 -4 -7 4 13
9 13 11 -2 11 -10 0 -21 0 -24 -1 -4 0 -10 4 -13 10 -4 5 -47 13 -98 17 -72 5
-97 4 -122 -9 -17 -9 -29 -11 -26 -6 8 13 -7 11 -86 -8 -38 -9 -69 -20 -69
-25 0 -5 -4 -6 -10 -3 -5 3 -10 1 -10 -5 0 -6 -4 -9 -9 -6 -14 9 -92 -34 -85
-46 4 -7 3 -8 -5 -4 -16 10 -64 -22 -55 -36 4 -7 3 -8 -4 -4 -16 9 -154 -94
-148 -111 3 -7 -1 -10 -10 -6 -18 7 -56 -25 -47 -40 3 -5 1 -7 -4 -4 -13 8
-36 -17 -25 -28 4 -5 2 -5 -4 -2 -11 6 -95 -76 -159 -157 -16 -20 -49 -59 -72
-85 -24 -26 -43 -51 -43 -54 0 -4 -26 -42 -57 -86 -32 -43 -65 -88 -73 -100
-8 -12 -18 -21 -22 -21 -4 0 -49 25 -100 56 -50 31 -104 60 -118 66 -14 5 -47
24 -75 42 -27 19 -93 56 -145 84 -79 41 -199 109 -207 116 -2 1 4 38 11 81 15
88 9 130 -27 163 l-22 21 -105 -60 -104 -60 -36 18 c-19 11 -115 66 -213 122
-98 57 -179 101 -181 100 -1 -2 -14 -29 -29 -59 -43 -90 -110 -148 -198 -171
-126 -33 -323 64 -889 437 -215 142 -604 384 -617 384 -5 0 -7 -208 -5 -462 3
-522 -5 -451 98 -815 30 -106 54 -203 54 -217 0 -25 -75 -146 -91 -146 -6 0
-9 -8 -7 -17 2 -10 -2 -17 -9 -16 -16 3 -149 -97 -145 -109 1 -5 -2 -7 -7 -4
-13 8 -93 -39 -84 -49 5 -4 3 -5 -4 -1 -15 8 -144 -55 -136 -67 3 -6 1 -7 -5
-4 -5 4 -50 -8 -99 -26 -48 -19 -109 -40 -135 -47 -26 -7 -45 -16 -43 -20 3
-5 -4 -6 -15 -3 -33 9 -23 -4 23 -26 46 -24 209 -41 244 -26 10 5 22 7 26 6
14 -3 187 52 183 58 -2 3 6 7 17 7 12 1 47 5 77 9 53 6 295 -17 308 -29 23
-24 -89 -106 -144 -106 -38 0 -35 -16 5 -28 35 -11 125 -66 181 -110 l24 -20
-13 -89 c-24 -166 -28 -179 -68 -198 -43 -21 -78 -17 -198 19 -153 46 -216 51
-378 31 -173 -21 -219 -14 -356 49 -53 25 -125 53 -161 64 -36 11 -108 36
-160 55 -73 27 -100 33 -114 25 -11 -6 -39 -8 -70 -3 -28 4 -61 8 -73 9 -11 0
-19 4 -17 7 6 10 -45 21 -59 13 -7 -4 -9 -3 -4 1 8 9 -55 37 -90 39 -11 0 -19
5 -15 10 3 5 -2 6 -12 3 -11 -5 -15 -3 -10 5 5 8 2 9 -10 5 -10 -4 -15 -3 -11
3 3 6 1 10 -4 10 -18 0 -26 -5 -23 -13 1 -5 -2 -6 -8 -2 -6 3 -8 11 -5 16 9
14 -134 79 -172 79 -26 0 -36 5 -43 25 -6 15 -30 35 -62 51 -136 68 -477 273
-573 345 -108 79 -127 118 -133 280 -3 75 1 161 12 240 9 68 25 207 36 309 55
496 89 736 136 955 90 418 211 567 516 640 89 21 539 152 544 158 1 1 4 64 8
139 l7 137 -73 42 c-236 138 -367 211 -398 220 -82 26 -257 22 -335 -7 -12 -4
1 14 30 44 61 64 99 127 125 211 19 61 20 93 20 1242 0 648 -2 1179 -5 1179
-5 0 -98 -52 -337 -190 l-128 -74 -2 -895 -3 -896 -29 -51 c-44 -80 -86 -113
-301 -237 -212 -121 -449 -258 -975 -562 -179 -103 -399 -231 -490 -283 -91
-52 -205 -118 -255 -147 -49 -28 -166 -96 -260 -150 -93 -54 -312 -180 -485
-280 -173 -100 -448 -259 -610 -352 -162 -94 -338 -195 -390 -225 -52 -30
-171 -99 -265 -153 -93 -54 -280 -162 -415 -240 -135 -78 -353 -204 -485 -280
-132 -76 -292 -168 -355 -205 -63 -37 -212 -122 -330 -190 -118 -68 -309 -178
-425 -245 -405 -234 -733 -424 -1100 -635 -203 -117 -406 -234 -450 -260 -44
-26 -147 -86 -230 -133 -82 -47 -298 -171 -480 -276 l-330 -191 -3 3432 -2
3432 28 61 c16 33 42 74 59 91 17 16 100 70 184 119 355 205 998 576 1179 680
107 62 254 146 325 187 72 42 216 125 320 185 536 309 1184 683 1295 748 69
40 217 125 330 190 113 65 257 148 320 185 63 37 178 103 255 147 77 45 271
157 430 249 160 92 362 209 450 259 88 51 522 301 965 557 744 430 1171 676
1245 718 17 10 84 49 150 87 66 39 194 113 285 165 91 52 311 179 490 283 179
103 333 190 342 193 17 4 18 -54 18 -1187 0 -655 3 -1191 6 -1191 3 0 49 25
102 56 53 31 157 90 230 131 l132 76 0 1272 0 1271 -26 53 c-34 67 -95 116
-228 181 -117 59 -174 68 -251 41z m6658 -10138 c-7 -2 -19 -2 -25 0 -7 3 -2
5 12 5 14 0 19 -2 13 -5z m-220 -10 c-7 -2 -19 -2 -25 0 -7 3 -2 5 12 5 14 0
19 -2 13 -5z m411 -50 c17 -21 17 -21 -3 -16 -13 3 -21 13 -21 26 0 11 1 18 3
16 1 -2 10 -14 21 -26z m-627 2 c0 -8 -4 -12 -9 -9 -5 3 -6 10 -3 15 9 13 12
11 12 -6z m580 -7 c-3 -8 -6 -5 -6 6 -1 11 2 17 5 13 3 -3 4 -12 1 -19z m92
-32 c9 -10 8 -15 -2 -19 -8 -3 -13 3 -13 14 0 23 0 23 15 5z m-819 -81 c0 -12
-19 -12 -23 0 -4 9 -1 12 9 8 7 -3 14 -7 14 -8z m518 -27 c14 -14 -2 -48 -23
-48 -31 0 -125 -42 -118 -52 4 -7 0 -9 -10 -5 -14 5 -97 -27 -97 -39 0 -2 9 0
19 6 11 5 23 10 28 10 4 -1 -3 -7 -17 -14 -14 -8 -28 -12 -32 -10 -5 3 -14 2
-20 -3 -7 -4 -15 -8 -18 -8 -19 -1 -159 -102 -155 -112 4 -12 -8 -18 -29 -14
-14 3 -56 -41 -49 -52 3 -6 1 -7 -6 -3 -15 10 -43 -13 -34 -27 4 -6 1 -7 -6
-2 -8 4 -22 -1 -35 -14 -11 -11 -49 -47 -83 -79 -35 -33 -63 -62 -63 -66 0 -4
-16 -20 -35 -37 -33 -29 -52 -66 -21 -40 10 8 16 9 21 1 4 -6 1 -9 -7 -8 -7 2
-12 -2 -11 -9 2 -7 -3 -10 -11 -7 -13 5 -79 -60 -88 -87 -6 -19 -65 7 -71 33
-3 11 -3 17 0 14 10 -9 33 15 26 27 -3 6 -1 7 5 3 11 -7 36 27 26 36 -2 3 4
11 13 19 17 13 17 13 3 -6 -14 -19 -14 -19 3 -6 10 8 16 20 13 28 -3 8 -2 12
3 9 5 -4 29 17 53 46 23 29 69 77 100 107 39 38 54 59 47 67 -6 8 -3 16 8 25
16 13 17 12 5 -3 -21 -27 4 -30 35 -4 69 60 121 101 155 124 21 13 35 28 32
33 -3 5 1 6 9 3 8 -3 18 0 23 7 4 8 3 10 -4 5 -8 -5 -10 -1 -5 9 4 11 8 13 13
6 4 -8 35 4 91 34 46 25 96 51 111 56 16 6 25 15 22 20 -3 5 1 7 8 4 7 -3 36
4 63 14 57 23 96 26 113 9z m-643 -48 c3 -5 1 -10 -4 -10 -6 0 -11 5 -11 10 0
6 2 10 4 10 3 0 8 -4 11 -10z m355 -25 c0 -2 -10 -9 -22 -15 -22 -11 -22 -10
-4 4 21 17 26 19 26 11z m-415 -56 c-10 -15 -25 -10 -19 6 4 8 10 12 15 9 5
-3 7 -10 4 -15z m553 12 c11 -6 10 -10 -4 -15 -9 -3 -19 -4 -22 -1 -3 3 1 5 9
5 11 0 11 2 -1 10 -8 5 -10 10 -5 10 6 0 16 -4 23 -9z m59 -7 c-3 -3 -12 -4
-19 -1 -8 3 -5 6 6 6 11 1 17 -2 13 -5z m-654 -24 c-3 -11 -12 -20 -21 -20
-13 0 -12 3 3 20 10 11 19 20 21 20 1 0 0 -9 -3 -20z m77 -20 c0 -5 -5 -10
-11 -10 -5 0 -7 5 -4 10 3 6 8 10 11 10 2 0 4 -4 4 -10z m190 4 c0 -1 -11 -9
-24 -18 -23 -14 -25 -14 -23 2 0 11 9 17 24 17 13 0 23 -1 23 -1z m790 -4 c0
-5 -4 -10 -10 -10 -5 0 -10 5 -10 10 0 6 5 10 10 10 6 0 10 -4 10 -10z m-604
-17 c-2 -9 -14 -23 -27 -31 -23 -14 -23 -13 -4 2 11 9 21 21 21 26 2 16 4 20
8 20 2 0 3 -8 2 -17z m617 -8 c-3 -9 -8 -14 -10 -11 -3 3 -2 9 2 15 9 16 15
13 8 -4z m-1101 -10 c2 3 5 -2 5 -10 0 -19 0 -19 -23 7 -12 14 -13 18 -3 10 9
-6 18 -10 21 -7z m528 -5 c0 -5 -5 -10 -11 -10 -5 0 -7 5 -4 10 3 6 8 10 11
10 2 0 4 -4 4 -10z m-317 -47 c-4 -10 -9 -11 -19 -2 -18 15 -18 15 5 15 11 0
17 -5 14 -13z m-302 -36 c-10 -9 -11 -8 -5 6 3 10 9 15 12 12 3 -3 0 -11 -7
-18z m269 13 c-19 -13 -30 -13 -30 0 0 6 10 10 23 10 18 0 19 -2 7 -10z m652
-174 c3 -16 -2 -27 -15 -35 -15 -10 -18 -10 -11 1 9 14 11 19 13 43 2 22 8 18
13 -9z m46 17 c-10 -2 -18 -9 -18 -15 0 -6 -3 -9 -6 -5 -10 10 6 27 24 26 15
-1 15 -2 0 -6z m-921 -38 c0 -8 -6 -16 -14 -19 -11 -4 -11 -1 -3 14 13 24 17
25 17 5z m808 -5 c3 -5 -1 -10 -9 -10 -9 0 -16 5 -16 10 0 6 4 10 9 10 6 0 13
-4 16 -10z m-682 -61 c-6 -6 -9 -1 -7 13 3 33 6 36 11 14 3 -10 1 -22 -4 -27z
m697 37 c0 -2 -12 -12 -27 -21 l-28 -18 19 21 c17 20 36 29 36 18z m-967 -140
c4 -10 1 -13 -9 -9 -7 3 -14 -1 -14 -8 0 -7 -3 -9 -6 -6 -4 4 -1 13 6 22 15
19 17 19 23 1z m137 -21 c-7 -9 -15 -13 -19 -10 -3 3 1 10 9 15 21 14 24 12
10 -5z m-40 -35 c-6 -11 -13 -20 -16 -20 -2 0 0 9 6 20 6 11 13 20 16 20 2 0
0 -9 -6 -20z m60 10 c0 -5 -5 -10 -11 -10 -5 0 -7 5 -4 10 3 6 8 10 11 10 2 0
4 -4 4 -10z m-16123 -316 c-3 -3 -12 -4 -19 -1 -8 3 -5 6 6 6 11 1 17 -2 13
-5z m733 -69 c0 -6 -17 -11 -37 -12 -21 -1 -29 1 -18 4 l20 6 -20 8 c-15 6
-10 7 17 6 21 -1 38 -7 38 -12z m30 -5 c0 -5 -2 -10 -4 -10 -3 0 -8 5 -11 10
-3 6 -1 10 4 10 6 0 11 -4 11 -10z m11875 -2 c4 -3 -4 -12 -17 -19 -12 -6 -20
-8 -16 -4 4 4 1 13 -8 19 -13 10 -12 12 9 11 14 0 28 -3 32 -7z m-13148 -4
c-3 -3 -12 -4 -19 -1 -8 3 -5 6 6 6 11 1 17 -2 13 -5z m14801 -30 c65 -45 -33
-230 -162 -304 -54 -31 -113 -39 -134 -18 -54 54 66 250 192 313 58 29 74 31
104 9z m-1842 -39 c-1 -8 -6 -18 -11 -22 -4 -4 -5 -2 -1 5 4 7 2 12 -6 12 -9
0 -9 3 2 10 19 12 19 13 16 -5z m-12089 -57 c-3 -7 -5 -2 -5 12 0 14 2 19 5
13 2 -7 2 -19 0 -25z m-654 10 c28 -6 43 -6 53 3 12 10 13 9 8 -5 -5 -12 -2
-15 10 -10 9 3 16 1 16 -6 0 -7 8 -9 23 -4 12 3 19 3 15 -1 -7 -8 144 -67 172
-68 8 0 24 4 35 8 19 7 19 7 1 -7 -17 -13 -14 -16 45 -39 35 -13 70 -23 76
-22 7 0 11 -3 8 -7 -2 -4 17 -15 43 -25 26 -10 52 -22 58 -27 6 -4 20 -6 30
-2 13 4 15 3 7 -3 -20 -14 66 -51 97 -42 14 4 19 7 11 8 -8 1 -12 4 -8 7 3 3
14 1 24 -4 16 -9 15 -11 -11 -18 l-29 -7 27 -14 c14 -8 32 -11 38 -7 7 5 8 3
3 -6 -6 -10 -4 -12 9 -7 10 4 15 3 11 -3 -8 -12 52 -43 68 -34 7 4 9 3 4 -1
-4 -5 31 -32 79 -61 47 -28 94 -60 105 -70 17 -16 22 -16 31 -4 8 12 9 11 4
-4 -5 -14 -2 -17 9 -12 9 3 13 2 10 -4 -7 -12 35 -31 49 -22 5 3 6 0 3 -5 -4
-6 2 -18 13 -28 11 -10 20 -14 20 -10 0 5 7 0 16 -11 8 -10 12 -12 9 -4 -4 8
4 2 17 -14 15 -18 29 -26 37 -22 7 5 10 2 9 -6 -2 -9 7 -12 27 -11 22 2 26 0
15 -7 -13 -8 -11 -13 9 -32 13 -13 20 -16 15 -8 -4 8 22 -12 59 -45 61 -56 66
-63 67 -102 0 -34 -3 -41 -17 -39 -10 2 -16 6 -15 10 5 11 -46 64 -82 87 -28
17 -30 17 -57 -3 -16 -12 -25 -26 -22 -31 3 -6 1 -7 -4 -4 -6 4 -22 -3 -35
-16 -14 -12 -29 -23 -34 -24 -25 -5 -143 -71 -137 -76 6 -7 -11 -11 -34 -8 -6
1 -35 -8 -65 -19 -29 -11 -61 -20 -71 -20 -14 0 -17 -5 -12 -20 4 -12 2 -20
-5 -20 -6 0 -9 4 -5 9 11 19 -11 19 -95 0 -98 -22 -309 -49 -327 -42 -7 3 -10
10 -6 16 3 5 -3 17 -13 25 -15 11 -15 13 -2 9 9 -3 19 -3 22 0 3 4 37 8 74 11
37 2 79 10 95 17 15 8 25 10 22 4 -6 -9 19 -6 125 17 111 25 141 35 135 44 -3
6 0 7 7 5 18 -7 97 21 122 43 11 9 16 11 12 5 -5 -9 -2 -11 8 -7 9 3 13 11 9
17 -3 5 -2 7 4 4 11 -7 88 27 116 51 14 12 15 17 5 24 -8 5 -3 7 14 4 21 -3
33 2 46 19 11 14 22 21 26 17 4 -3 4 1 1 9 -3 9 -23 25 -43 37 -21 12 -46 30
-56 41 -10 11 -23 18 -27 15 -5 -3 -9 -1 -9 4 0 5 -37 33 -82 62 -46 29 -102
66 -125 82 -24 16 -43 26 -43 23 0 -4 -7 1 -16 10 -9 9 -23 14 -31 11 -8 -3
-12 -2 -8 3 6 11 -143 94 -168 93 -9 0 -15 3 -12 9 6 8 -8 13 -27 10 -5 0 -8
4 -8 10 0 5 -4 7 -10 4 -5 -3 -10 -2 -10 3 0 14 -77 45 -91 37 -8 -6 -10 -4
-4 5 6 10 4 12 -9 7 -9 -4 -15 -3 -12 1 7 11 -121 65 -134 57 -6 -4 -21 2 -33
13 -22 20 -157 76 -157 65 0 -3 -7 0 -15 7 -8 7 -22 10 -30 6 -11 -4 -14 -2
-9 6 5 7 2 9 -9 5 -9 -3 -17 -1 -19 4 -2 6 -22 11 -45 12 -22 1 -38 6 -35 11
3 5 -1 7 -9 4 -20 -8 -44 12 -45 37 -1 24 21 27 79 13z m724 -60 c-3 -7 -5 -2
-5 12 0 14 2 19 5 13 2 -7 2 -19 0 -25z m121 6 c-12 -12 -17 -13 -23 -3 -5 8
-4 10 4 5 6 -4 14 0 17 9 4 9 9 13 12 10 3 -3 -1 -13 -10 -21z m-905 -25 c-12
-12 -33 -4 -33 11 0 5 7 6 17 3 12 -5 14 -3 8 8 -6 11 -5 12 6 2 9 -10 10 -16
2 -24z m422 -19 c-3 -5 -12 -10 -18 -10 -7 0 -6 4 3 10 19 12 23 12 15 0z m42
4 c-3 -3 -12 -4 -19 -1 -8 3 -5 6 6 6 11 1 17 -2 13 -5z m-292 -24 c13 -5 14
-9 5 -9 -8 0 -24 4 -35 9 -13 5 -14 9 -5 9 8 0 24 -4 35 -9z m390 -40 c-3 -5
-12 -10 -18 -10 -7 0 -6 4 3 10 19 12 23 12 15 0z m10865 -50 c18 -12 2 -12
-25 0 -13 6 -15 9 -5 9 8 0 22 -4 30 -9z m-10675 -150 c3 -6 -1 -7 -9 -4 -18
7 -21 14 -7 14 6 0 13 -4 16 -10z m210 0 c3 -5 1 -10 -4 -10 -6 0 -11 5 -11
10 0 6 2 10 4 10 3 0 8 -4 11 -10z m10805 -4 c0 -3 -4 -8 -10 -11 -5 -3 -10
-1 -10 4 0 6 5 11 10 11 6 0 10 -2 10 -4z m-11982 -36 c-7 -10 -14 -17 -17
-15 -4 4 18 35 25 35 2 0 -1 -9 -8 -20z m1287 -9 c3 -5 0 -13 -6 -17 -8 -5 -9
-3 -4 6 6 10 4 12 -9 7 -10 -4 -15 -3 -11 3 8 13 22 13 30 1z m10955 -12 c0
-12 -37 -12 -44 0 -3 4 -3 11 0 14 8 7 44 -4 44 -14z m77 -5 c-3 -3 -12 -4
-19 -1 -8 3 -5 6 6 6 11 1 17 -2 13 -5z m-11207 -18 c0 -2 -7 -7 -16 -10 -8
-3 -12 -2 -9 4 6 10 25 14 25 6z m11330 -20 c0 -2 -7 -6 -15 -10 -8 -3 -15 -1
-15 4 0 6 7 10 15 10 8 0 15 -2 15 -4z m-11030 -30 c0 -2 -7 -7 -16 -10 -8 -3
-12 -2 -9 4 6 10 25 14 25 6z m-1350 -16 c0 -5 -2 -10 -4 -10 -3 0 -8 5 -11
10 -3 6 -1 10 4 10 6 0 11 -4 11 -10z m1140 6 c0 -2 -7 -7 -16 -10 -8 -3 -12
-2 -9 4 6 10 25 14 25 6z m30 -21 c-7 -8 -17 -15 -23 -15 -6 0 -2 7 9 15 25
19 30 19 14 0z m90 -40 c0 -2 -6 -5 -13 -8 -8 -3 -14 1 -14 8 0 7 6 11 14 8 7
-3 13 -6 13 -8z m184 -6 c-3 -5 -10 -7 -15 -3 -5 3 -7 10 -3 15 3 5 10 7 15 3
5 -3 7 -10 3 -15z m-1271 4 c-7 -2 -19 -2 -25 0 -7 3 -2 5 12 5 14 0 19 -2 13
-5z m-46 -9 c-3 -3 -12 -4 -19 -1 -8 3 -5 6 6 6 11 1 17 -2 13 -5z m456 -1
c-7 -2 -21 -2 -30 0 -10 3 -4 5 12 5 17 0 24 -2 18 -5z m681 -14 c-4 -7 0 -9
13 -5 13 4 25 0 34 -11 12 -16 12 -17 -1 -7 -8 6 -30 11 -47 9 -26 -1 -31 1
-22 12 14 16 33 18 23 2z m-667 -5 c-3 -3 -12 -4 -19 -1 -8 3 -5 6 6 6 11 1
17 -2 13 -5z m53 2 c0 -11 -19 -15 -25 -6 -3 5 1 10 9 10 9 0 16 -2 16 -4z
m971 -133 c13 -16 12 -17 -3 -4 -10 7 -18 15 -18 17 0 8 8 3 21 -13z m10153 9
c3 -5 -1 -9 -9 -9 -8 0 -12 4 -9 9 3 4 7 8 9 8 2 0 6 -4 9 -8z m-11214 -22
c-8 -5 -19 -10 -25 -10 -5 0 -3 5 5 10 8 5 20 10 25 10 6 0 3 -5 -5 -10z
m11218 -25 c-3 -3 -9 2 -12 12 -6 14 -5 15 5 6 7 -7 10 -15 7 -18z m-11211 -1
c-3 -3 -12 -4 -19 -1 -8 3 -5 6 6 6 11 1 17 -2 13 -5z m973 -9 c0 -2 -6 -5
-13 -8 -8 -3 -14 1 -14 8 0 7 6 11 14 8 7 -3 13 -6 13 -8z m-180 1 c0 -2 -7
-9 -15 -16 -13 -11 -14 -10 -9 4 5 14 24 23 24 12z m-1133 -62 c-3 -3 -12 -4
-19 -1 -8 3 -5 6 6 6 11 1 17 -2 13 -5z m1233 -17 c0 -2 -8 -3 -18 -3 -10 0
-19 6 -19 13 0 8 6 9 19 2 10 -5 18 -11 18 -12z m125 -5 c-3 -3 -11 0 -18 7
-9 10 -8 11 6 5 10 -3 15 -9 12 -12z m-385 4 c0 -3 -4 -8 -10 -11 -5 -3 -10
-1 -10 4 0 6 5 11 10 11 6 0 10 -2 10 -4z m-120 -30 c0 -2 -11 -6 -25 -8 -13
-3 -22 -1 -19 3 5 9 44 13 44 5z m10855 -6 c3 -5 1 -10 -4 -10 -6 0 -11 5 -11
10 0 6 2 10 4 10 3 0 8 -4 11 -10z m-10555 -50 c-8 -5 -19 -10 -25 -10 -5 0
-3 5 5 10 8 5 20 10 25 10 6 0 3 -5 -5 -10z m-1192 -41 c-3 -8 -7 -3 -11 10
-4 17 -3 21 5 13 5 -5 8 -16 6 -23z m-45 6 c-3 -9 -8 -14 -10 -11 -3 3 -2 9 2
15 9 16 15 13 8 -4z m471 6 c3 -5 -1 -11 -9 -14 -9 -4 -12 -1 -8 9 6 16 10 17
17 5z m53 3 c-3 -3 -12 -4 -19 -1 -8 3 -5 6 6 6 11 1 17 -2 13 -5z m-502 -14
c-3 -5 -1 -19 6 -31 6 -12 7 -19 1 -15 -6 3 -13 0 -16 -6 -3 -7 -3 -2 0 11 4
17 3 21 -6 16 -9 -6 -9 -3 -1 14 7 11 14 21 17 21 3 0 2 -4 -1 -10z m445 -55
c7 -9 8 -15 2 -15 -5 0 -12 7 -16 15 -3 8 -4 15 -2 15 2 0 9 -7 16 -15z m83
-32 c-7 -2 -19 -2 -25 0 -7 3 -2 5 12 5 14 0 19 -2 13 -5z m-447 -110 c-8 -15
-15 -22 -16 -15 0 14 22 53 28 47 2 -2 -3 -16 -12 -32z m7 -38 c-3 -9 -8 -14
-10 -11 -3 3 -2 9 2 15 9 16 15 13 8 -4z m90 -111 c-7 -20 -14 -12 -18 22 -2
25 -1 26 10 10 8 -10 11 -24 8 -32z m67 -38 c-7 -7 -13 -7 -20 0 -6 6 -3 10
10 10 13 0 16 -4 10 -10z m5 -26 c-3 -5 -12 -10 -18 -10 -7 0 -6 4 3 10 19 12
23 12 15 0z m662 -65 c0 -8 -4 -12 -9 -9 -5 3 -6 10 -3 15 9 13 12 11 12 -6z
m-80 -181 c-3 -3 -12 -4 -19 -1 -8 3 -5 6 6 6 11 1 17 -2 13 -5z m737 -173 c3
-5 -1 -11 -9 -14 -9 -4 -12 -1 -8 9 6 16 10 17 17 5z m-527 -47 c-3 -3 -12 -4
-19 -1 -8 3 -5 6 6 6 11 1 17 -2 13 -5z m13250 -46 c-3 -8 -6 -5 -6 6 -1 11 2
17 5 13 3 -3 4 -12 1 -19z m240 -320 c-3 -8 -6 -5 -6 6 -1 11 2 17 5 13 3 -3
4 -12 1 -19z m-670 -934 c-3 -3 -12 -4 -19 -1 -8 3 -5 6 6 6 11 1 17 -2 13 -5z
m-39 -28 c9 -21 8 -25 -11 -30 -43 -11 -57 -7 -57 18 0 41 51 49 68 12z m39 8
c-3 -3 -12 -4 -19 -1 -8 3 -5 6 6 6 11 1 17 -2 13 -5z m33 -104 c0 -5 -5 -10
-11 -10 -5 0 -7 5 -4 10 3 6 8 10 11 10 2 0 4 -4 4 -10z m-4 -52 c6 -20 7 -20
19 -5 11 16 13 16 19 1 9 -23 7 -34 -4 -34 -5 0 -7 8 -3 18 6 16 5 16 -13 0
-27 -24 -103 -35 -115 -17 -14 23 -11 29 24 44 46 20 65 18 73 -7z m73 -154
c6 -15 10 -28 9 -29 -2 -1 -31 -8 -66 -15 -48 -10 -66 -10 -75 -1 -19 19 5 45
54 58 62 16 64 16 78 -13z m43 -16 c-7 -7 -12 -8 -12 -2 0 14 12 26 19 19 2
-3 -1 -11 -7 -17z m108 -130 c-13 -5 -28 -7 -34 -4 -6 2 -3 5 7 5 10 1 16 5
13 10 -4 5 4 7 16 3 l22 -5 -24 -9z m67 16 c-3 -3 -12 -4 -19 -1 -8 3 -5 6 6
6 11 1 17 -2 13 -5z"/>
<path d="M1447 7659 c7 -7 15 -10 18 -7 3 3 -2 9 -12 12 -14 6 -15 5 -6 -5z"/>
<path d="M14473 16425 c-41 -24 -64 -44 -71 -63 -5 -15 -22 -98 -37 -185 -16
-86 -32 -154 -36 -150 -4 5 -19 64 -35 132 -15 68 -33 125 -40 128 -14 5 -95
-39 -114 -62 -6 -7 -25 -90 -43 -184 -17 -94 -34 -171 -38 -171 -4 0 -16 42
-28 93 -42 184 -43 185 -99 150 -84 -51 -92 -58 -92 -84 0 -14 23 -113 50
-220 28 -107 57 -224 66 -260 24 -105 28 -108 101 -65 71 42 69 36 108 244 15
78 30 141 32 139 2 -2 17 -58 34 -123 17 -65 33 -122 35 -126 10 -16 126 56
140 87 11 24 134 637 146 724 4 35 -10 35 -79 -4z"/>
<path d="M14665 16084 c-33 -20 -63 -41 -67 -48 -9 -14 -10 -220 -1 -229 8 -9
113 50 136 75 14 17 17 40 17 129 0 81 -3 109 -12 109 -7 0 -40 -16 -73 -36z"/>
<path d="M13710 15985 c-33 -21 -59 -46 -66 -62 -6 -16 -24 -99 -40 -185 -15
-87 -31 -154 -34 -150 -4 4 -19 63 -35 131 -16 68 -35 125 -42 128 -22 8 -111
-48 -121 -76 -5 -14 -22 -97 -37 -183 -16 -87 -32 -158 -35 -158 -4 0 -19 55
-34 123 -16 67 -33 128 -40 134 -9 10 -26 4 -79 -28 -56 -34 -67 -44 -67 -67
0 -36 135 -561 147 -573 6 -6 32 3 71 26 71 43 70 40 108 244 15 79 30 137 34
130 4 -8 20 -65 35 -126 19 -81 32 -113 42 -113 28 0 122 64 132 90 9 24 138
668 143 720 4 35 -18 34 -82 -5z"/>
<path d="M12955 15550 c-27 -16 -55 -36 -61 -45 -7 -9 -27 -95 -45 -191 -18
-96 -36 -168 -40 -162 -4 7 -19 66 -34 131 -16 68 -33 121 -41 124 -22 8 -112
-47 -122 -76 -5 -14 -22 -97 -37 -183 -16 -87 -31 -158 -34 -158 -4 0 -19 56
-35 125 -16 68 -33 129 -37 136 -5 8 -27 0 -75 -27 -52 -30 -70 -46 -72 -64
-2 -20 42 -206 129 -542 12 -46 23 -47 94 -7 63 36 63 36 101 237 15 79 30
140 34 135 3 -4 19 -57 34 -118 15 -60 31 -114 36 -119 14 -14 127 53 139 82
5 15 39 180 76 367 36 187 68 350 71 363 6 30 -17 28 -81 -8z"/>
<path d="M12217 15482 c-32 -20 -62 -44 -67 -52 -4 -8 -17 -55 -28 -105 -56
-243 -226 -975 -253 -1084 -16 -69 -26 -128 -21 -133 8 -8 112 48 139 75 7 7
73 273 148 592 74 319 142 607 150 641 18 74 19 104 3 103 -7 0 -39 -17 -71
-37z"/>
<path d="M11923 15312 c-51 -29 -66 -44 -78 -77 -8 -22 -62 -245 -120 -495
-57 -250 -122 -531 -144 -625 -23 -97 -36 -174 -31 -179 5 -5 36 8 74 30 49
28 68 46 76 69 17 53 300 1274 300 1295 0 26 -4 25 -77 -18z"/>
<path d="M6890 15124 c-168 -22 -328 -69 -485 -143 -570 -270 -1128 -892
-1510 -1683 -109 -227 -160 -351 -235 -578 -158 -474 -230 -888 -230 -1322 0
-609 150 -1063 445 -1353 80 -78 119 -106 296 -211 112 -67 301 -180 419 -250
434 -259 490 -279 760 -279 149 1 189 4 270 24 602 149 1228 715 1689 1528
202 357 406 878 490 1253 84 374 102 516 108 855 4 234 2 291 -16 431 -56 433
-194 764 -405 967 -94 91 -160 136 -466 317 -124 73 -247 146 -275 163 -313
189 -384 224 -520 258 -78 19 -264 32 -335 23z m1005 -1154 c357 -113 587
-459 646 -969 19 -171 7 -534 -24 -713 -99 -562 -309 -1061 -648 -1538 -122
-171 -378 -434 -531 -545 -368 -264 -733 -341 -1026 -217 -284 121 -469 392
-553 808 -27 138 -38 481 -19 661 77 761 460 1575 977 2074 267 257 521 403
798 458 86 17 300 7 380 -19z"/>
<path d="M7548 13837 c-37 -7 -70 -16 -73 -19 -4 -3 14 -25 39 -49 26 -23 62
-64 82 -90 39 -54 112 -198 139 -276 10 -29 22 -50 27 -47 26 16 238 359 238
385 0 17 -104 69 -175 88 -67 17 -205 21 -277 8z"/>
<path d="M7238 13730 l-38 -20 0 -456 c0 -361 3 -454 13 -448 124 74 447 385
447 432 0 33 -59 191 -103 276 -42 82 -131 187 -178 211 -48 25 -100 27 -141
5z"/>
<path d="M8061 13597 c-41 -75 -157 -250 -217 -330 -24 -31 -44 -64 -44 -73 0
-9 9 -59 19 -112 24 -118 48 -325 57 -489 4 -68 10 -123 13 -123 3 1 51 27
106 60 55 32 169 99 252 147 l153 88 0 53 c0 204 -54 447 -141 627 -41 85
-133 215 -152 215 -7 0 -27 -28 -46 -63z"/>
<path d="M7045 13603 c-73 -73 -182 -265 -254 -446 -54 -136 -161 -502 -161
-551 0 -46 221 4 387 87 l63 31 0 453 c0 249 -2 453 -4 453 -2 0 -16 -12 -31
-27z"/>
<path d="M6641 13225 c-119 -145 -241 -325 -334 -493 -16 -30 -27 -55 -25 -56
24 -22 169 -76 203 -76 18 0 23 9 34 63 30 149 103 391 163 540 22 54 38 101
35 103 -3 3 -37 -34 -76 -81z"/>
<path d="M7581 12964 c-102 -102 -238 -214 -343 -284 l-38 -25 0 -293 0 -293
58 32 c31 18 69 41 84 51 14 10 29 18 32 18 2 0 60 33 128 73 68 41 155 92
195 115 l71 42 -4 97 c-11 240 -47 560 -65 577 -2 3 -55 -47 -118 -110z"/>
<path d="M8168 12497 c-114 -67 -226 -132 -248 -145 l-40 -23 0 -82 c0 -179
-42 -611 -75 -773 -4 -18 3 -23 52 -33 44 -10 137 -48 194 -78 6 -4 17 18 69
130 112 244 219 618 254 887 28 213 29 240 14 239 -7 0 -106 -55 -220 -122z"/>
<path d="M7045 12576 c-59 -41 -300 -106 -394 -106 l-50 0 -10 -52 c-43 -227
-89 -738 -66 -738 7 0 308 172 480 275 l70 42 3 297 c1 163 -1 296 -6 296 -4
0 -16 -6 -27 -14z"/>
<path d="M6199 12523 c-149 -330 -247 -649 -288 -946 -31 -223 -34 -267 -18
-267 7 0 17 4 23 9 5 5 81 50 169 101 88 50 195 112 238 138 l77 46 0 72 c0
163 51 690 76 781 5 18 1 22 -28 28 -53 11 -115 33 -168 60 -27 14 -52 25 -54
25 -3 0 -15 -21 -27 -47z"/>
<path d="M7565 12145 c-99 -58 -222 -129 -272 -157 l-93 -53 0 -292 c0 -166 4
-293 9 -293 5 0 40 13 78 29 96 41 214 71 310 78 l82 6 10 51 c44 218 90 736
65 736 -5 0 -90 -48 -189 -105z"/>
<path d="M6788 11693 l-268 -157 0 -111 c0 -126 23 -376 45 -493 8 -42 15 -79
15 -81 0 -3 46 43 103 100 109 111 220 205 330 279 l66 45 1 288 c0 223 -3
287 -12 287 -7 0 -133 -71 -280 -157z"/>
<path d="M6133 11312 l-253 -147 0 -57 c0 -79 27 -277 51 -373 47 -188 125
-341 239 -468 5 -5 25 22 46 60 38 68 149 239 226 346 l41 57 -22 123 c-30
171 -38 237 -52 435 -7 94 -15 172 -18 172 -3 -1 -120 -67 -258 -148z"/>
<path d="M7576 11338 c-92 -12 -203 -45 -293 -88 l-83 -39 0 -457 0 -458 36
35 c66 64 168 238 239 409 62 148 175 526 175 584 0 22 -9 23 -74 14z"/>
<path d="M7770 11314 c0 -60 -96 -391 -166 -573 -25 -63 -43 -115 -41 -117 5
-5 84 88 169 201 72 95 207 305 250 389 23 46 26 43 -82 88 -75 32 -130 37
-130 12z"/>
<path d="M6988 11068 c-76 -57 -275 -247 -341 -325 -15 -18 -27 -40 -27 -48 0
-32 44 -154 93 -254 63 -131 153 -230 229 -250 43 -12 51 -11 92 9 l46 22 0
454 c0 250 -2 454 -4 454 -3 0 -42 -28 -88 -62z"/>
<path d="M6483 10528 c-43 -58 -133 -201 -182 -290 l-32 -57 73 -34 c97 -46
165 -61 268 -61 72 1 200 19 200 28 0 2 -29 33 -64 70 -74 77 -130 168 -182
299 -20 50 -38 93 -39 95 -1 1 -20 -21 -42 -50z"/>
<path d="M11384 14661 c-33 -21 -64 -46 -67 -56 -9 -22 -9 -210 0 -218 7 -7
105 44 136 71 14 13 17 33 17 129 0 84 -3 113 -12 113 -7 0 -40 -18 -74 -39z"/>
<path d="M11040 14453 c-41 -21 -64 -42 -90 -81 -31 -47 -35 -50 -42 -31 -8
20 -9 20 -65 -12 -32 -17 -64 -39 -70 -47 -10 -12 -13 -123 -13 -479 0 -393 2
-463 14 -463 21 0 124 63 132 80 5 12 9 101 14 309 0 3 5 0 12 -7 20 -20 73
-14 113 13 72 50 121 123 156 235 21 65 24 96 24 225 0 120 -4 159 -18 196
-34 88 -81 106 -167 62z m17 -235 c27 -44 19 -186 -13 -255 -18 -37 -71 -70
-98 -60 -41 16 -45 180 -7 256 32 61 96 93 118 59z"/>
<path d="M10458 14364 c-40 -24 -59 -42 -60 -57 -1 -12 -3 -31 -4 -42 -1 -11
-2 -60 -3 -110 l-1 -90 -37 -20 c-42 -22 -50 -43 -52 -141 -1 -77 11 -91 56
-63 18 11 33 19 34 17 0 -2 1 -70 2 -153 2 -128 5 -156 22 -190 40 -79 95 -83
203 -15 l62 39 0 96 c0 60 -4 95 -11 95 -5 0 -27 -10 -48 -22 -65 -37 -71 -28
-71 121 0 119 2 130 19 136 10 3 37 19 60 35 l41 30 0 95 c0 52 -3 95 -7 95
-3 0 -30 -14 -60 -30 l-53 -30 0 120 c0 140 0 140 -92 84z"/>
<path d="M11390 14194 c-30 -18 -61 -41 -67 -51 -15 -20 -18 -219 -3 -228 11
-7 110 47 134 74 14 15 16 37 14 126 -2 62 -7 109 -13 111 -5 1 -35 -13 -65
-32z"/>
<path d="M10060 14134 c-82 -47 -80 -43 -80 -180 0 -118 -1 -124 -22 -135 -60
-31 -68 -47 -68 -140 0 -48 4 -90 8 -93 5 -3 23 4 40 15 18 10 35 19 37 19 3
0 5 -64 5 -142 0 -157 10 -209 45 -244 33 -33 71 -30 153 12 54 28 73 44 81
66 11 31 9 163 -2 174 -4 4 -29 -5 -56 -20 -35 -19 -52 -23 -57 -15 -4 6 -7
68 -6 137 l0 125 48 29 c27 17 55 37 62 46 15 20 17 178 1 187 -6 4 -33 -7
-60 -24 -27 -16 -49 -27 -50 -23 0 4 -1 56 -2 117 -2 126 -6 130 -77 89z"/>
<path d="M9446 13780 c-88 -52 -81 -5 -83 -511 -1 -248 1 -457 4 -465 8 -21
23 -17 91 26 l62 39 0 204 c0 221 10 286 52 324 33 30 63 37 82 18 13 -14 16
-46 17 -198 1 -100 1 -191 0 -202 -1 -11 3 -27 8 -35 9 -13 18 -10 67 15 89
47 86 37 82 327 -4 288 -10 317 -71 343 -64 27 -156 -23 -202 -109 -11 -20
-23 -36 -27 -36 -5 0 -8 65 -8 145 0 110 -3 145 -12 144 -7 0 -35 -13 -62 -29z"/>
<path d="M13340 12634 c-88 -11 -190 -39 -250 -67 -116 -57 -219 -181 -236
-284 -4 -30 -12 -42 -34 -51 -129 -58 -202 -185 -202 -355 1 -67 25 -221 37
-235 2 -2 17 6 33 18 43 32 109 37 165 12 36 -16 55 -34 89 -86 23 -37 51 -69
61 -72 53 -17 72 65 72 313 0 106 1 193 1 193 1 0 40 -20 86 -45 155 -82 283
-115 452 -115 69 0 128 6 178 19 106 27 243 98 196 102 -84 6 -113 11 -131 21
-19 10 -16 12 33 25 30 8 79 25 109 39 30 13 55 23 56 22 11 -14 65 -291 65
-331 0 -57 18 -15 30 70 13 90 9 194 -12 275 l-12 47 40 43 c63 69 87 129 92
230 3 55 1 88 -6 88 -5 0 -27 -7 -48 -16 -29 -12 -60 -15 -124 -12 -75 4 -99
11 -206 56 -67 28 -159 61 -205 72 -82 19 -259 32 -329 24z"/>
<path d="M13935 11818 c-22 -13 -35 -28 -35 -43 0 -10 110 -45 139 -45 21 0
11 42 -18 71 -31 31 -54 35 -86 17z"/>
<path d="M13364 11758 c-28 -13 -46 -53 -38 -83 l6 -24 69 34 c72 37 79 53 33
74 -30 13 -42 13 -70 -1z"/>
<path d="M13935 11622 c-74 -16 -73 -104 2 -126 26 -8 73 31 73 59 0 41 -38
75 -75 67z"/>
<path d="M13445 11568 c-44 -25 -48 -76 -8 -107 30 -24 58 -20 86 11 24 28 21
55 -8 83 -27 28 -40 30 -70 13z"/>
<path d="M12790 11331 c-12 -23 -5 -47 16 -55 20 -8 54 11 54 29 0 45 -49 64
-70 26z"/>
<path d="M12878 11217 c-16 -6 -28 -13 -28 -17 0 -3 13 -37 30 -75 l29 -70 1
88 c0 48 -1 87 -2 86 -2 -1 -15 -6 -30 -12z"/>
<path d="M17909 10253 c-13 -16 -12 -17 4 -4 16 13 21 21 13 21 -2 0 -10 -8
-17 -17z"/>
</g>
</svg>
